<mxfile host="Electron" agent="Mozilla/5.0 (Macintosh; Intel Mac OS X 10_15_7) AppleWebKit/537.36 (KHTML, like Gecko) draw.io/24.7.17 Chrome/128.0.6613.36 Electron/32.0.1 Safari/537.36" version="24.7.17">
  <diagram id="ceOphD1cwh-qrkSyjahi" name="Page-1">
    <mxGraphModel dx="2022" dy="1466" grid="1" gridSize="10" guides="1" tooltips="1" connect="1" arrows="1" fold="1" page="1" pageScale="1" pageWidth="1654" pageHeight="1169" background="none" math="0" shadow="0">
      <root>
        <mxCell id="0" />
        <mxCell id="1" parent="0" />
        <mxCell id="emeEYZtQ20ZXC9A35gYS-1" style="edgeStyle=orthogonalEdgeStyle;rounded=0;orthogonalLoop=1;jettySize=auto;html=1;exitX=0;exitY=0.5;exitDx=0;exitDy=0;endArrow=none;endFill=0;" parent="1" source="pkc1mqCRBSREItcjR_jf-3" edge="1">
          <mxGeometry relative="1" as="geometry">
            <mxPoint x="449.60491415895063" y="185" as="targetPoint" />
          </mxGeometry>
        </mxCell>
        <mxCell id="emeEYZtQ20ZXC9A35gYS-8" style="edgeStyle=orthogonalEdgeStyle;shape=connector;rounded=0;orthogonalLoop=1;jettySize=auto;html=1;strokeColor=default;align=center;verticalAlign=middle;fontFamily=Helvetica;fontSize=11;fontColor=default;labelBackgroundColor=default;endArrow=none;endFill=0;" parent="1" source="pkc1mqCRBSREItcjR_jf-3" edge="1">
          <mxGeometry relative="1" as="geometry">
            <mxPoint x="1120" y="185" as="targetPoint" />
          </mxGeometry>
        </mxCell>
        <mxCell id="K5wjV0CV18HsrDoXG3gK-26" style="shape=link;html=1;rounded=0;exitX=0.14;exitY=0.625;exitDx=0;exitDy=0;exitPerimeter=0;" parent="1" source="pkc1mqCRBSREItcjR_jf-3" target="BpGY9KvfrWQEJMPuJOA5-1" edge="1">
          <mxGeometry relative="1" as="geometry">
            <mxPoint x="590" y="300" as="targetPoint" />
            <Array as="points">
              <mxPoint x="680" y="190" />
              <mxPoint x="590" y="190" />
            </Array>
          </mxGeometry>
        </mxCell>
        <mxCell id="pkc1mqCRBSREItcjR_jf-3" value="EMPLOYEE" style="whiteSpace=wrap;html=1;align=center;fontFamily=Helvetica;fontSize=11;fontColor=default;labelBackgroundColor=default;strokeWidth=1;arcSize=12;" parent="1" vertex="1">
          <mxGeometry x="756" y="165" width="100" height="40" as="geometry" />
        </mxCell>
        <mxCell id="emeEYZtQ20ZXC9A35gYS-29" style="edgeStyle=orthogonalEdgeStyle;shape=connector;rounded=0;orthogonalLoop=1;jettySize=auto;html=1;strokeColor=default;align=center;verticalAlign=middle;fontFamily=Helvetica;fontSize=11;fontColor=default;labelBackgroundColor=default;endArrow=none;endFill=0;" parent="1" source="pkc1mqCRBSREItcjR_jf-5" target="pkc1mqCRBSREItcjR_jf-3" edge="1">
          <mxGeometry relative="1" as="geometry">
            <mxPoint x="590" y="185" as="targetPoint" />
            <Array as="points">
              <mxPoint x="537" y="185" />
            </Array>
          </mxGeometry>
        </mxCell>
        <mxCell id="pkc1mqCRBSREItcjR_jf-5" value="Date_of_birth" style="ellipse;whiteSpace=wrap;html=1;align=center;fontFamily=Helvetica;fontSize=11;fontColor=default;labelBackgroundColor=default;" parent="1" vertex="1">
          <mxGeometry x="487" y="125" width="100" height="40" as="geometry" />
        </mxCell>
        <mxCell id="emeEYZtQ20ZXC9A35gYS-36" style="edgeStyle=orthogonalEdgeStyle;shape=connector;rounded=0;orthogonalLoop=1;jettySize=auto;html=1;strokeColor=default;align=center;verticalAlign=middle;fontFamily=Helvetica;fontSize=11;fontColor=default;labelBackgroundColor=default;endArrow=none;endFill=0;" parent="1" source="pkc1mqCRBSREItcjR_jf-7" target="pkc1mqCRBSREItcjR_jf-3" edge="1">
          <mxGeometry relative="1" as="geometry">
            <mxPoint x="970" y="185" as="targetPoint" />
            <Array as="points">
              <mxPoint x="997" y="185" />
            </Array>
          </mxGeometry>
        </mxCell>
        <mxCell id="pkc1mqCRBSREItcjR_jf-7" value="Email" style="ellipse;whiteSpace=wrap;html=1;align=center;fontFamily=Helvetica;fontSize=11;fontColor=default;labelBackgroundColor=default;" parent="1" vertex="1">
          <mxGeometry x="963" y="125" width="68" height="40" as="geometry" />
        </mxCell>
        <mxCell id="emeEYZtQ20ZXC9A35gYS-41" style="edgeStyle=orthogonalEdgeStyle;shape=connector;rounded=0;orthogonalLoop=1;jettySize=auto;html=1;strokeColor=default;align=center;verticalAlign=middle;fontFamily=Helvetica;fontSize=11;fontColor=default;labelBackgroundColor=default;endArrow=none;endFill=0;" parent="1" source="pkc1mqCRBSREItcjR_jf-9" target="pkc1mqCRBSREItcjR_jf-3" edge="1">
          <mxGeometry relative="1" as="geometry">
            <mxPoint x="460" y="185" as="targetPoint" />
            <Array as="points">
              <mxPoint x="371" y="185" />
            </Array>
          </mxGeometry>
        </mxCell>
        <mxCell id="pkc1mqCRBSREItcjR_jf-9" value="&lt;u&gt;SSN&lt;/u&gt;" style="ellipse;whiteSpace=wrap;html=1;align=center;fontFamily=Helvetica;fontSize=11;fontColor=default;labelBackgroundColor=default;" parent="1" vertex="1">
          <mxGeometry x="340" y="125" width="62" height="40" as="geometry" />
        </mxCell>
        <mxCell id="emeEYZtQ20ZXC9A35gYS-37" style="edgeStyle=orthogonalEdgeStyle;shape=connector;rounded=0;orthogonalLoop=1;jettySize=auto;html=1;strokeColor=default;align=center;verticalAlign=middle;fontFamily=Helvetica;fontSize=11;fontColor=default;labelBackgroundColor=default;endArrow=none;endFill=0;" parent="1" source="pkc1mqCRBSREItcjR_jf-12" target="pkc1mqCRBSREItcjR_jf-3" edge="1">
          <mxGeometry relative="1" as="geometry">
            <mxPoint x="1050" y="185" as="targetPoint" />
            <Array as="points">
              <mxPoint x="1064" y="185" />
            </Array>
          </mxGeometry>
        </mxCell>
        <mxCell id="pkc1mqCRBSREItcjR_jf-12" value="Name" style="ellipse;whiteSpace=wrap;html=1;align=center;fontFamily=Helvetica;fontSize=11;fontColor=default;labelBackgroundColor=default;" parent="1" vertex="1">
          <mxGeometry x="1038" y="125" width="52" height="40" as="geometry" />
        </mxCell>
        <mxCell id="pkc1mqCRBSREItcjR_jf-14" value="Phone_number" style="ellipse;whiteSpace=wrap;html=1;align=center;fontFamily=Helvetica;fontSize=11;fontColor=default;labelBackgroundColor=default;" parent="1" vertex="1">
          <mxGeometry x="856" y="125" width="100" height="40" as="geometry" />
        </mxCell>
        <mxCell id="emeEYZtQ20ZXC9A35gYS-38" style="edgeStyle=orthogonalEdgeStyle;shape=connector;rounded=0;orthogonalLoop=1;jettySize=auto;html=1;strokeColor=default;align=center;verticalAlign=middle;fontFamily=Helvetica;fontSize=11;fontColor=default;labelBackgroundColor=default;endArrow=none;endFill=0;" parent="1" source="pkc1mqCRBSREItcjR_jf-16" target="pkc1mqCRBSREItcjR_jf-3" edge="1">
          <mxGeometry relative="1" as="geometry">
            <mxPoint x="1100" y="185" as="targetPoint" />
            <Array as="points">
              <mxPoint x="1134" y="185" />
            </Array>
          </mxGeometry>
        </mxCell>
        <mxCell id="pkc1mqCRBSREItcjR_jf-16" value="Position" style="ellipse;whiteSpace=wrap;html=1;align=center;fontFamily=Helvetica;fontSize=11;fontColor=default;labelBackgroundColor=default;" parent="1" vertex="1">
          <mxGeometry x="1100" y="125" width="68" height="40" as="geometry" />
        </mxCell>
        <mxCell id="emeEYZtQ20ZXC9A35gYS-32" style="edgeStyle=orthogonalEdgeStyle;shape=connector;rounded=0;orthogonalLoop=1;jettySize=auto;html=1;strokeColor=default;align=center;verticalAlign=middle;fontFamily=Helvetica;fontSize=11;fontColor=default;labelBackgroundColor=default;endArrow=none;endFill=0;" parent="1" source="pkc1mqCRBSREItcjR_jf-18" target="pkc1mqCRBSREItcjR_jf-3" edge="1">
          <mxGeometry relative="1" as="geometry">
            <mxPoint x="470" y="185" as="targetPoint" />
            <Array as="points">
              <mxPoint x="444" y="185" />
            </Array>
          </mxGeometry>
        </mxCell>
        <mxCell id="pkc1mqCRBSREItcjR_jf-18" value="Hire_date" style="ellipse;whiteSpace=wrap;html=1;align=center;fontFamily=Helvetica;fontSize=11;fontColor=default;labelBackgroundColor=default;" parent="1" vertex="1">
          <mxGeometry x="410" y="125" width="68" height="40" as="geometry" />
        </mxCell>
        <mxCell id="emeEYZtQ20ZXC9A35gYS-42" style="edgeStyle=orthogonalEdgeStyle;shape=connector;rounded=0;orthogonalLoop=1;jettySize=auto;html=1;strokeColor=default;align=center;verticalAlign=middle;fontFamily=Helvetica;fontSize=11;fontColor=default;labelBackgroundColor=default;endArrow=none;endFill=0;" parent="1" source="pkc1mqCRBSREItcjR_jf-20" target="pkc1mqCRBSREItcjR_jf-3" edge="1">
          <mxGeometry relative="1" as="geometry">
            <Array as="points">
              <mxPoint x="1209" y="185" />
            </Array>
          </mxGeometry>
        </mxCell>
        <mxCell id="pkc1mqCRBSREItcjR_jf-20" value="Salary" style="ellipse;whiteSpace=wrap;html=1;align=center;fontFamily=Helvetica;fontSize=11;fontColor=default;labelBackgroundColor=default;" parent="1" vertex="1">
          <mxGeometry x="1180" y="125" width="57" height="40" as="geometry" />
        </mxCell>
        <mxCell id="pkc1mqCRBSREItcjR_jf-21" value="Last_name" style="ellipse;whiteSpace=wrap;html=1;align=center;fontFamily=Helvetica;fontSize=11;fontColor=default;labelBackgroundColor=default;" parent="1" vertex="1">
          <mxGeometry x="1050" y="50" width="88" height="40" as="geometry" />
        </mxCell>
        <mxCell id="pkc1mqCRBSREItcjR_jf-22" value="First_name" style="ellipse;whiteSpace=wrap;html=1;align=center;fontFamily=Helvetica;fontSize=11;fontColor=default;labelBackgroundColor=default;" parent="1" vertex="1">
          <mxGeometry x="963" y="50" width="80" height="40" as="geometry" />
        </mxCell>
        <mxCell id="emeEYZtQ20ZXC9A35gYS-5" style="edgeStyle=orthogonalEdgeStyle;shape=connector;rounded=0;orthogonalLoop=1;jettySize=auto;html=1;strokeColor=default;align=center;verticalAlign=middle;fontFamily=Helvetica;fontSize=11;fontColor=default;labelBackgroundColor=default;endArrow=none;endFill=0;" parent="1" source="pkc1mqCRBSREItcjR_jf-24" target="pkc1mqCRBSREItcjR_jf-3" edge="1">
          <mxGeometry relative="1" as="geometry">
            <mxPoint x="625" y="180" as="targetPoint" />
            <Array as="points">
              <mxPoint x="625" y="185" />
            </Array>
          </mxGeometry>
        </mxCell>
        <mxCell id="pkc1mqCRBSREItcjR_jf-24" value="Gender" style="ellipse;whiteSpace=wrap;html=1;align=center;fontFamily=Helvetica;fontSize=11;fontColor=default;labelBackgroundColor=default;" parent="1" vertex="1">
          <mxGeometry x="595" y="125" width="60" height="40" as="geometry" />
        </mxCell>
        <mxCell id="emeEYZtQ20ZXC9A35gYS-4" style="edgeStyle=orthogonalEdgeStyle;shape=connector;rounded=0;orthogonalLoop=1;jettySize=auto;html=1;strokeColor=default;align=center;verticalAlign=middle;fontFamily=Helvetica;fontSize=11;fontColor=default;labelBackgroundColor=default;endArrow=none;endFill=0;" parent="1" source="pkc1mqCRBSREItcjR_jf-33" target="pkc1mqCRBSREItcjR_jf-3" edge="1">
          <mxGeometry relative="1" as="geometry">
            <mxPoint x="700" y="190" as="targetPoint" />
            <mxPoint x="679" y="150" as="sourcePoint" />
            <Array as="points">
              <mxPoint x="710" y="185" />
            </Array>
          </mxGeometry>
        </mxCell>
        <mxCell id="emeEYZtQ20ZXC9A35gYS-14" value="" style="endArrow=none;html=1;rounded=0;strokeColor=default;align=center;verticalAlign=middle;fontFamily=Helvetica;fontSize=11;fontColor=default;labelBackgroundColor=default;edgeStyle=orthogonalEdgeStyle;" parent="1" source="pkc1mqCRBSREItcjR_jf-22" target="pkc1mqCRBSREItcjR_jf-12" edge="1">
          <mxGeometry relative="1" as="geometry">
            <mxPoint x="760" y="190" as="sourcePoint" />
            <mxPoint x="920" y="190" as="targetPoint" />
          </mxGeometry>
        </mxCell>
        <mxCell id="emeEYZtQ20ZXC9A35gYS-15" value="" style="endArrow=none;html=1;rounded=0;strokeColor=default;align=center;verticalAlign=middle;fontFamily=Helvetica;fontSize=11;fontColor=default;labelBackgroundColor=default;edgeStyle=orthogonalEdgeStyle;" parent="1" source="pkc1mqCRBSREItcjR_jf-12" target="pkc1mqCRBSREItcjR_jf-21" edge="1">
          <mxGeometry relative="1" as="geometry">
            <mxPoint x="760" y="190" as="sourcePoint" />
            <mxPoint x="920" y="190" as="targetPoint" />
          </mxGeometry>
        </mxCell>
        <mxCell id="emeEYZtQ20ZXC9A35gYS-35" value="" style="endArrow=none;html=1;rounded=0;strokeColor=default;align=center;verticalAlign=middle;fontFamily=Helvetica;fontSize=11;fontColor=default;labelBackgroundColor=default;edgeStyle=orthogonalEdgeStyle;" parent="1" source="pkc1mqCRBSREItcjR_jf-3" target="pkc1mqCRBSREItcjR_jf-14" edge="1">
          <mxGeometry relative="1" as="geometry">
            <mxPoint x="827" y="185" as="sourcePoint" />
            <mxPoint x="927" y="185" as="targetPoint" />
            <Array as="points">
              <mxPoint x="906" y="185" />
            </Array>
          </mxGeometry>
        </mxCell>
        <mxCell id="BpGY9KvfrWQEJMPuJOA5-4" style="shape=link;html=1;rounded=0;exitX=0.536;exitY=-0.002;exitDx=0;exitDy=0;exitPerimeter=0;" parent="1" source="K5wjV0CV18HsrDoXG3gK-1" target="BpGY9KvfrWQEJMPuJOA5-1" edge="1">
          <mxGeometry relative="1" as="geometry">
            <Array as="points" />
          </mxGeometry>
        </mxCell>
        <mxCell id="BpGY9KvfrWQEJMPuJOA5-5" style="shape=link;html=1;rounded=0;" parent="1" source="K5wjV0CV18HsrDoXG3gK-1" edge="1">
          <mxGeometry relative="1" as="geometry">
            <mxPoint x="700" y="355" as="targetPoint" />
          </mxGeometry>
        </mxCell>
        <mxCell id="KUZXssvCnWUthsy9ei0v-4" style="edgeStyle=orthogonalEdgeStyle;shape=connector;rounded=0;orthogonalLoop=1;jettySize=auto;html=1;strokeColor=default;align=center;verticalAlign=middle;fontFamily=Helvetica;fontSize=11;fontColor=default;labelBackgroundColor=default;endArrow=none;endFill=0;" parent="1" edge="1">
          <mxGeometry relative="1" as="geometry">
            <mxPoint x="589.037037037037" y="375" as="sourcePoint" />
            <mxPoint x="589.037037037037" y="413.2645502645503" as="targetPoint" />
            <Array as="points">
              <mxPoint x="589" y="380" />
              <mxPoint x="589" y="380" />
            </Array>
          </mxGeometry>
        </mxCell>
        <mxCell id="K5wjV0CV18HsrDoXG3gK-1" value="BRANCH" style="whiteSpace=wrap;html=1;align=center;fontFamily=Helvetica;fontSize=11;fontColor=default;labelBackgroundColor=default;" parent="1" vertex="1">
          <mxGeometry x="535" y="335" width="100" height="40" as="geometry" />
        </mxCell>
        <mxCell id="aS97i3CBMKSQ5NDVYQfa-2" style="edgeStyle=orthogonalEdgeStyle;shape=connector;rounded=0;orthogonalLoop=1;jettySize=auto;html=1;strokeColor=default;align=center;verticalAlign=middle;fontFamily=Helvetica;fontSize=11;fontColor=default;labelBackgroundColor=default;endArrow=none;endFill=0;" parent="1" source="K5wjV0CV18HsrDoXG3gK-2" target="K5wjV0CV18HsrDoXG3gK-1" edge="1">
          <mxGeometry relative="1" as="geometry">
            <Array as="points">
              <mxPoint x="510" y="453" />
              <mxPoint x="510" y="355" />
            </Array>
          </mxGeometry>
        </mxCell>
        <mxCell id="K5wjV0CV18HsrDoXG3gK-2" value="Name" style="ellipse;whiteSpace=wrap;html=1;align=center;fontFamily=Helvetica;fontSize=11;fontColor=default;labelBackgroundColor=default;" parent="1" vertex="1">
          <mxGeometry x="423" y="433" width="56" height="40" as="geometry" />
        </mxCell>
        <mxCell id="K5wjV0CV18HsrDoXG3gK-9" style="edgeStyle=orthogonalEdgeStyle;shape=connector;rounded=0;orthogonalLoop=1;jettySize=auto;html=1;strokeColor=default;align=center;verticalAlign=middle;fontFamily=Helvetica;fontSize=11;fontColor=default;labelBackgroundColor=default;endArrow=none;endFill=0;" parent="1" source="K5wjV0CV18HsrDoXG3gK-3" target="K5wjV0CV18HsrDoXG3gK-1" edge="1">
          <mxGeometry relative="1" as="geometry" />
        </mxCell>
        <mxCell id="K5wjV0CV18HsrDoXG3gK-3" value="Phone_number" style="ellipse;whiteSpace=wrap;html=1;align=center;fontStyle=4;fontFamily=Helvetica;fontSize=11;fontColor=default;labelBackgroundColor=default;" parent="1" vertex="1">
          <mxGeometry x="399" y="335" width="80" height="40" as="geometry" />
        </mxCell>
        <mxCell id="K5wjV0CV18HsrDoXG3gK-21" style="edgeStyle=orthogonalEdgeStyle;shape=connector;rounded=0;orthogonalLoop=1;jettySize=auto;html=1;strokeColor=default;align=center;verticalAlign=middle;fontFamily=Helvetica;fontSize=11;fontColor=default;labelBackgroundColor=default;endArrow=none;endFill=0;" parent="1" source="K5wjV0CV18HsrDoXG3gK-5" target="K5wjV0CV18HsrDoXG3gK-1" edge="1">
          <mxGeometry relative="1" as="geometry">
            <Array as="points">
              <mxPoint x="510" y="403" />
              <mxPoint x="510" y="355" />
            </Array>
          </mxGeometry>
        </mxCell>
        <mxCell id="K5wjV0CV18HsrDoXG3gK-5" value="Work_hours" style="ellipse;shape=doubleEllipse;margin=3;whiteSpace=wrap;html=1;align=center;fontFamily=Helvetica;fontSize=11;fontColor=default;labelBackgroundColor=default;" parent="1" vertex="1">
          <mxGeometry x="407" y="383" width="72" height="40" as="geometry" />
        </mxCell>
        <mxCell id="K5wjV0CV18HsrDoXG3gK-24" style="edgeStyle=orthogonalEdgeStyle;shape=connector;rounded=0;orthogonalLoop=1;jettySize=auto;html=1;strokeColor=default;align=center;verticalAlign=middle;fontFamily=Helvetica;fontSize=11;fontColor=default;labelBackgroundColor=default;endArrow=none;endFill=0;" parent="1" source="K5wjV0CV18HsrDoXG3gK-6" target="K5wjV0CV18HsrDoXG3gK-5" edge="1">
          <mxGeometry relative="1" as="geometry">
            <Array as="points">
              <mxPoint x="369" y="355" />
              <mxPoint x="369" y="403" />
            </Array>
          </mxGeometry>
        </mxCell>
        <mxCell id="K5wjV0CV18HsrDoXG3gK-6" value="Day" style="ellipse;whiteSpace=wrap;html=1;align=center;fontFamily=Helvetica;fontSize=11;fontColor=default;labelBackgroundColor=default;" parent="1" vertex="1">
          <mxGeometry x="309" y="335" width="52" height="40" as="geometry" />
        </mxCell>
        <mxCell id="K5wjV0CV18HsrDoXG3gK-23" style="edgeStyle=orthogonalEdgeStyle;shape=connector;rounded=0;orthogonalLoop=1;jettySize=auto;html=1;strokeColor=default;align=center;verticalAlign=middle;fontFamily=Helvetica;fontSize=11;fontColor=default;labelBackgroundColor=default;endArrow=none;endFill=0;" parent="1" source="K5wjV0CV18HsrDoXG3gK-7" target="K5wjV0CV18HsrDoXG3gK-5" edge="1">
          <mxGeometry relative="1" as="geometry" />
        </mxCell>
        <mxCell id="K5wjV0CV18HsrDoXG3gK-7" value="Opening_hour" style="ellipse;whiteSpace=wrap;html=1;align=center;fontFamily=Helvetica;fontSize=11;fontColor=default;labelBackgroundColor=default;" parent="1" vertex="1">
          <mxGeometry x="261" y="383" width="100" height="40" as="geometry" />
        </mxCell>
        <mxCell id="K5wjV0CV18HsrDoXG3gK-25" style="edgeStyle=orthogonalEdgeStyle;shape=connector;rounded=0;orthogonalLoop=1;jettySize=auto;html=1;strokeColor=default;align=center;verticalAlign=middle;fontFamily=Helvetica;fontSize=11;fontColor=default;labelBackgroundColor=default;endArrow=none;endFill=0;" parent="1" source="K5wjV0CV18HsrDoXG3gK-8" target="K5wjV0CV18HsrDoXG3gK-5" edge="1">
          <mxGeometry relative="1" as="geometry">
            <Array as="points">
              <mxPoint x="369" y="453" />
              <mxPoint x="369" y="403" />
            </Array>
          </mxGeometry>
        </mxCell>
        <mxCell id="K5wjV0CV18HsrDoXG3gK-8" value="Closing_hour" style="ellipse;whiteSpace=wrap;html=1;align=center;fontFamily=Helvetica;fontSize=11;fontColor=default;labelBackgroundColor=default;" parent="1" vertex="1">
          <mxGeometry x="261" y="433" width="100" height="40" as="geometry" />
        </mxCell>
        <mxCell id="BpGY9KvfrWQEJMPuJOA5-1" value="WORKS_IN" style="shape=rhombus;perimeter=rhombusPerimeter;whiteSpace=wrap;html=1;align=center;fontFamily=Helvetica;fontSize=11;fontColor=default;labelBackgroundColor=default;" parent="1" vertex="1">
          <mxGeometry x="540" y="248" width="98" height="60" as="geometry" />
        </mxCell>
        <mxCell id="68kRGUx6oMTllSvz9PA--2" style="edgeStyle=orthogonalEdgeStyle;shape=connector;rounded=0;orthogonalLoop=1;jettySize=auto;html=1;strokeColor=default;align=center;verticalAlign=middle;fontFamily=Helvetica;fontSize=11;fontColor=default;labelBackgroundColor=default;endArrow=none;endFill=0;" parent="1" source="68kRGUx6oMTllSvz9PA--1" target="pkc1mqCRBSREItcjR_jf-3" edge="1">
          <mxGeometry relative="1" as="geometry">
            <Array as="points">
              <mxPoint x="790" y="355" />
            </Array>
          </mxGeometry>
        </mxCell>
        <mxCell id="68kRGUx6oMTllSvz9PA--1" value="MANAGES_&lt;br&gt;BRANCH" style="shape=rhombus;perimeter=rhombusPerimeter;whiteSpace=wrap;html=1;align=center;fontFamily=Helvetica;fontSize=11;fontColor=default;labelBackgroundColor=default;" parent="1" vertex="1">
          <mxGeometry x="651" y="325" width="119" height="60" as="geometry" />
        </mxCell>
        <mxCell id="A3GAqd4UNdZnERA_Ktre-3" value="CATEGORY" style="whiteSpace=wrap;html=1;align=center;fontFamily=Helvetica;fontSize=11;fontColor=default;labelBackgroundColor=default;strokeWidth=1;arcSize=12;" parent="1" vertex="1">
          <mxGeometry x="132" y="165" width="100" height="40" as="geometry" />
        </mxCell>
        <mxCell id="A3GAqd4UNdZnERA_Ktre-6" style="edgeStyle=orthogonalEdgeStyle;shape=connector;rounded=0;orthogonalLoop=1;jettySize=auto;html=1;strokeColor=default;align=center;verticalAlign=middle;fontFamily=Helvetica;fontSize=11;fontColor=default;labelBackgroundColor=default;endArrow=none;endFill=0;" parent="1" source="A3GAqd4UNdZnERA_Ktre-4" target="A3GAqd4UNdZnERA_Ktre-3" edge="1">
          <mxGeometry relative="1" as="geometry">
            <Array as="points">
              <mxPoint x="120" y="145" />
              <mxPoint x="120" y="185" />
            </Array>
          </mxGeometry>
        </mxCell>
        <mxCell id="A3GAqd4UNdZnERA_Ktre-4" value="Name" style="ellipse;whiteSpace=wrap;html=1;align=center;fontStyle=4;fontFamily=Helvetica;fontSize=11;fontColor=default;labelBackgroundColor=default;" parent="1" vertex="1">
          <mxGeometry x="50" y="125" width="60" height="40" as="geometry" />
        </mxCell>
        <mxCell id="A3GAqd4UNdZnERA_Ktre-7" style="edgeStyle=orthogonalEdgeStyle;shape=connector;rounded=0;orthogonalLoop=1;jettySize=auto;html=1;strokeColor=default;align=center;verticalAlign=middle;fontFamily=Helvetica;fontSize=11;fontColor=default;labelBackgroundColor=default;endArrow=none;endFill=0;" parent="1" source="A3GAqd4UNdZnERA_Ktre-5" target="A3GAqd4UNdZnERA_Ktre-3" edge="1">
          <mxGeometry relative="1" as="geometry">
            <Array as="points">
              <mxPoint x="120" y="210" />
              <mxPoint x="120" y="185" />
            </Array>
          </mxGeometry>
        </mxCell>
        <mxCell id="A3GAqd4UNdZnERA_Ktre-5" value="Description" style="ellipse;whiteSpace=wrap;html=1;align=center;fontFamily=Helvetica;fontSize=11;fontColor=default;labelBackgroundColor=default;" parent="1" vertex="1">
          <mxGeometry x="30" y="190" width="80" height="40" as="geometry" />
        </mxCell>
        <mxCell id="Sw5fzMXS8IAmLCfFUG5_-1" style="edgeStyle=none;shape=connector;rounded=0;orthogonalLoop=1;jettySize=auto;html=1;entryX=0;entryY=0.5;entryDx=0;entryDy=0;strokeColor=default;align=center;verticalAlign=middle;fontFamily=Helvetica;fontSize=11;fontColor=default;labelBackgroundColor=default;endArrow=none;endFill=0;strokeWidth=1;arcSize=12;" parent="1" target="Sw5fzMXS8IAmLCfFUG5_-3" edge="1">
          <mxGeometry relative="1" as="geometry">
            <mxPoint x="176" y="165" as="sourcePoint" />
          </mxGeometry>
        </mxCell>
        <mxCell id="Sw5fzMXS8IAmLCfFUG5_-2" style="shape=link;html=1;rounded=0;entryX=1;entryY=0.5;entryDx=0;entryDy=0;" parent="1" source="A3GAqd4UNdZnERA_Ktre-3" target="Sw5fzMXS8IAmLCfFUG5_-3" edge="1">
          <mxGeometry relative="1" as="geometry">
            <mxPoint x="188" y="165" as="sourcePoint" />
          </mxGeometry>
        </mxCell>
        <mxCell id="Sw5fzMXS8IAmLCfFUG5_-3" value="SUBCATEGORY" style="shape=rhombus;perimeter=rhombusPerimeter;whiteSpace=wrap;html=1;align=center;fontFamily=Helvetica;fontSize=11;fontColor=default;labelBackgroundColor=default;strokeWidth=1;arcSize=12;" parent="1" vertex="1">
          <mxGeometry x="122" y="10" width="120" height="60" as="geometry" />
        </mxCell>
        <mxCell id="S0Rb-i1IFxb-rZdg_ujg-2" style="shape=link;html=1;rounded=0;" parent="1" source="ZmDCDeHjcGQ9Co0sPI0v-1" target="S0Rb-i1IFxb-rZdg_ujg-1" edge="1">
          <mxGeometry relative="1" as="geometry" />
        </mxCell>
        <mxCell id="ZmDCDeHjcGQ9Co0sPI0v-1" value="PRODUCT" style="whiteSpace=wrap;html=1;align=center;fontFamily=Helvetica;fontSize=11;fontColor=default;labelBackgroundColor=default;" parent="1" vertex="1">
          <mxGeometry x="132" y="520" width="100" height="40" as="geometry" />
        </mxCell>
        <mxCell id="kyVWxh3bd1ti4vMmR7iF-2" style="edgeStyle=orthogonalEdgeStyle;shape=connector;rounded=0;orthogonalLoop=1;jettySize=auto;html=1;strokeColor=default;align=center;verticalAlign=middle;fontFamily=Helvetica;fontSize=11;fontColor=default;labelBackgroundColor=default;endArrow=none;endFill=0;" parent="1" source="kyVWxh3bd1ti4vMmR7iF-1" target="A3GAqd4UNdZnERA_Ktre-3" edge="1">
          <mxGeometry relative="1" as="geometry" />
        </mxCell>
        <mxCell id="kyVWxh3bd1ti4vMmR7iF-3" style="edgeStyle=orthogonalEdgeStyle;rounded=0;orthogonalLoop=1;jettySize=auto;html=1;strokeColor=default;align=center;verticalAlign=middle;fontFamily=Helvetica;fontSize=11;fontColor=default;labelBackgroundColor=default;endArrow=none;endFill=0;shape=link;" parent="1" source="kyVWxh3bd1ti4vMmR7iF-1" target="ZmDCDeHjcGQ9Co0sPI0v-1" edge="1">
          <mxGeometry relative="1" as="geometry" />
        </mxCell>
        <mxCell id="kyVWxh3bd1ti4vMmR7iF-1" value="CONTAINS" style="shape=rhombus;perimeter=rhombusPerimeter;whiteSpace=wrap;html=1;align=center;fontFamily=Helvetica;fontSize=11;fontColor=default;labelBackgroundColor=default;" parent="1" vertex="1">
          <mxGeometry x="138" y="315" width="88" height="60" as="geometry" />
        </mxCell>
        <mxCell id="pGls_qhn8D-zngaLaQQu-13" style="edgeStyle=orthogonalEdgeStyle;shape=connector;rounded=0;orthogonalLoop=1;jettySize=auto;html=1;strokeColor=default;align=center;verticalAlign=middle;fontFamily=Helvetica;fontSize=11;fontColor=default;labelBackgroundColor=default;endArrow=none;endFill=0;" parent="1" source="DT4-a4NbbJKJhZ1tCvNV-1" target="ZmDCDeHjcGQ9Co0sPI0v-1" edge="1">
          <mxGeometry relative="1" as="geometry">
            <Array as="points">
              <mxPoint x="120" y="690" />
              <mxPoint x="120" y="540" />
            </Array>
          </mxGeometry>
        </mxCell>
        <mxCell id="DT4-a4NbbJKJhZ1tCvNV-1" value="SKU" style="ellipse;whiteSpace=wrap;html=1;align=center;fontStyle=4;" parent="1" vertex="1">
          <mxGeometry x="50" y="670" width="60" height="40" as="geometry" />
        </mxCell>
        <mxCell id="pGls_qhn8D-zngaLaQQu-10" style="edgeStyle=orthogonalEdgeStyle;shape=connector;rounded=0;orthogonalLoop=1;jettySize=auto;html=1;strokeColor=default;align=center;verticalAlign=middle;fontFamily=Helvetica;fontSize=11;fontColor=default;labelBackgroundColor=default;endArrow=none;endFill=0;" parent="1" source="DT4-a4NbbJKJhZ1tCvNV-2" target="ZmDCDeHjcGQ9Co0sPI0v-1" edge="1">
          <mxGeometry relative="1" as="geometry" />
        </mxCell>
        <mxCell id="DT4-a4NbbJKJhZ1tCvNV-2" value="Brand" style="ellipse;whiteSpace=wrap;html=1;align=center;" parent="1" vertex="1">
          <mxGeometry x="50" y="520" width="60" height="40" as="geometry" />
        </mxCell>
        <mxCell id="pGls_qhn8D-zngaLaQQu-11" style="edgeStyle=orthogonalEdgeStyle;shape=connector;rounded=0;orthogonalLoop=1;jettySize=auto;html=1;strokeColor=default;align=center;verticalAlign=middle;fontFamily=Helvetica;fontSize=11;fontColor=default;labelBackgroundColor=default;endArrow=none;endFill=0;" parent="1" source="DT4-a4NbbJKJhZ1tCvNV-3" target="ZmDCDeHjcGQ9Co0sPI0v-1" edge="1">
          <mxGeometry relative="1" as="geometry">
            <Array as="points">
              <mxPoint x="120" y="590" />
              <mxPoint x="120" y="540" />
            </Array>
          </mxGeometry>
        </mxCell>
        <mxCell id="DT4-a4NbbJKJhZ1tCvNV-3" value="Weight" style="ellipse;whiteSpace=wrap;html=1;align=center;" parent="1" vertex="1">
          <mxGeometry x="50" y="570" width="60" height="40" as="geometry" />
        </mxCell>
        <mxCell id="pGls_qhn8D-zngaLaQQu-14" style="edgeStyle=orthogonalEdgeStyle;shape=connector;rounded=0;orthogonalLoop=1;jettySize=auto;html=1;strokeColor=default;align=center;verticalAlign=middle;fontFamily=Helvetica;fontSize=11;fontColor=default;labelBackgroundColor=default;endArrow=none;endFill=0;" parent="1" source="DT4-a4NbbJKJhZ1tCvNV-4" target="ZmDCDeHjcGQ9Co0sPI0v-1" edge="1">
          <mxGeometry relative="1" as="geometry">
            <Array as="points">
              <mxPoint x="120" y="740" />
              <mxPoint x="120" y="540" />
            </Array>
          </mxGeometry>
        </mxCell>
        <mxCell id="DT4-a4NbbJKJhZ1tCvNV-4" value="Price" style="ellipse;whiteSpace=wrap;html=1;align=center;" parent="1" vertex="1">
          <mxGeometry x="50" y="720" width="60" height="40" as="geometry" />
        </mxCell>
        <mxCell id="pGls_qhn8D-zngaLaQQu-16" style="edgeStyle=orthogonalEdgeStyle;shape=connector;rounded=0;orthogonalLoop=1;jettySize=auto;html=1;strokeColor=default;align=center;verticalAlign=middle;fontFamily=Helvetica;fontSize=11;fontColor=default;labelBackgroundColor=default;endArrow=none;endFill=0;" parent="1" source="DT4-a4NbbJKJhZ1tCvNV-5" target="ZmDCDeHjcGQ9Co0sPI0v-1" edge="1">
          <mxGeometry relative="1" as="geometry">
            <Array as="points">
              <mxPoint x="120" y="840" />
              <mxPoint x="120" y="540" />
            </Array>
          </mxGeometry>
        </mxCell>
        <mxCell id="DT4-a4NbbJKJhZ1tCvNV-5" value="Name" style="ellipse;whiteSpace=wrap;html=1;align=center;" parent="1" vertex="1">
          <mxGeometry x="60" y="820" width="50" height="40" as="geometry" />
        </mxCell>
        <mxCell id="pGls_qhn8D-zngaLaQQu-12" style="edgeStyle=orthogonalEdgeStyle;shape=connector;rounded=0;orthogonalLoop=1;jettySize=auto;html=1;strokeColor=default;align=center;verticalAlign=middle;fontFamily=Helvetica;fontSize=11;fontColor=default;labelBackgroundColor=default;endArrow=none;endFill=0;" parent="1" source="DT4-a4NbbJKJhZ1tCvNV-6" target="ZmDCDeHjcGQ9Co0sPI0v-1" edge="1">
          <mxGeometry relative="1" as="geometry">
            <Array as="points">
              <mxPoint x="120" y="640" />
              <mxPoint x="120" y="540" />
            </Array>
          </mxGeometry>
        </mxCell>
        <mxCell id="DT4-a4NbbJKJhZ1tCvNV-6" value="Image_URLs" style="ellipse;shape=doubleEllipse;margin=3;whiteSpace=wrap;html=1;align=center;" parent="1" vertex="1">
          <mxGeometry x="10" y="620" width="100" height="40" as="geometry" />
        </mxCell>
        <mxCell id="pGls_qhn8D-zngaLaQQu-15" style="edgeStyle=orthogonalEdgeStyle;shape=connector;rounded=0;orthogonalLoop=1;jettySize=auto;html=1;strokeColor=default;align=center;verticalAlign=middle;fontFamily=Helvetica;fontSize=11;fontColor=default;labelBackgroundColor=default;endArrow=none;endFill=0;" parent="1" source="DT4-a4NbbJKJhZ1tCvNV-7" target="ZmDCDeHjcGQ9Co0sPI0v-1" edge="1">
          <mxGeometry relative="1" as="geometry">
            <Array as="points">
              <mxPoint x="120" y="790" />
              <mxPoint x="120" y="540" />
            </Array>
          </mxGeometry>
        </mxCell>
        <mxCell id="DT4-a4NbbJKJhZ1tCvNV-7" value="Colors" style="ellipse;shape=doubleEllipse;margin=3;whiteSpace=wrap;html=1;align=center;" parent="1" vertex="1">
          <mxGeometry x="34" y="770" width="76" height="40" as="geometry" />
        </mxCell>
        <mxCell id="pGls_qhn8D-zngaLaQQu-17" style="edgeStyle=orthogonalEdgeStyle;shape=connector;rounded=0;orthogonalLoop=1;jettySize=auto;html=1;strokeColor=default;align=center;verticalAlign=middle;fontFamily=Helvetica;fontSize=11;fontColor=default;labelBackgroundColor=default;endArrow=none;endFill=0;" parent="1" source="DT4-a4NbbJKJhZ1tCvNV-8" target="ZmDCDeHjcGQ9Co0sPI0v-1" edge="1">
          <mxGeometry relative="1" as="geometry">
            <Array as="points">
              <mxPoint x="120" y="890" />
              <mxPoint x="120" y="540" />
            </Array>
          </mxGeometry>
        </mxCell>
        <mxCell id="DT4-a4NbbJKJhZ1tCvNV-8" value="&lt;span style=&quot;font-size: 12px; background-color: rgb(251, 251, 251);&quot;&gt;Description&lt;/span&gt;" style="ellipse;whiteSpace=wrap;html=1;align=center;fontFamily=Helvetica;fontSize=11;fontColor=default;labelBackgroundColor=default;" parent="1" vertex="1">
          <mxGeometry x="40" y="870" width="70" height="40" as="geometry" />
        </mxCell>
        <mxCell id="pGls_qhn8D-zngaLaQQu-5" style="edgeStyle=orthogonalEdgeStyle;shape=connector;rounded=0;orthogonalLoop=1;jettySize=auto;html=1;strokeColor=default;align=center;verticalAlign=middle;fontFamily=Helvetica;fontSize=11;fontColor=default;labelBackgroundColor=default;endArrow=none;endFill=0;" parent="1" source="pGls_qhn8D-zngaLaQQu-1" target="pGls_qhn8D-zngaLaQQu-4" edge="1">
          <mxGeometry relative="1" as="geometry">
            <Array as="points">
              <mxPoint x="85" y="460" />
              <mxPoint x="85" y="460" />
            </Array>
          </mxGeometry>
        </mxCell>
        <mxCell id="pGls_qhn8D-zngaLaQQu-1" value="Height" style="ellipse;whiteSpace=wrap;html=1;align=center;" parent="1" vertex="1">
          <mxGeometry x="60" y="410" width="40" height="40" as="geometry" />
        </mxCell>
        <mxCell id="pGls_qhn8D-zngaLaQQu-6" style="edgeStyle=orthogonalEdgeStyle;shape=connector;rounded=0;orthogonalLoop=1;jettySize=auto;html=1;strokeColor=default;align=center;verticalAlign=middle;fontFamily=Helvetica;fontSize=11;fontColor=default;labelBackgroundColor=default;endArrow=none;endFill=0;" parent="1" source="pGls_qhn8D-zngaLaQQu-2" target="pGls_qhn8D-zngaLaQQu-4" edge="1">
          <mxGeometry relative="1" as="geometry">
            <Array as="points">
              <mxPoint x="30" y="460" />
              <mxPoint x="85" y="460" />
            </Array>
          </mxGeometry>
        </mxCell>
        <mxCell id="pGls_qhn8D-zngaLaQQu-2" value="Width" style="ellipse;whiteSpace=wrap;html=1;align=center;" parent="1" vertex="1">
          <mxGeometry x="10" y="410" width="40" height="40" as="geometry" />
        </mxCell>
        <mxCell id="pGls_qhn8D-zngaLaQQu-7" style="edgeStyle=orthogonalEdgeStyle;shape=connector;rounded=0;orthogonalLoop=1;jettySize=auto;html=1;strokeColor=default;align=center;verticalAlign=middle;fontFamily=Helvetica;fontSize=11;fontColor=default;labelBackgroundColor=default;endArrow=none;endFill=0;" parent="1" source="pGls_qhn8D-zngaLaQQu-3" target="pGls_qhn8D-zngaLaQQu-4" edge="1">
          <mxGeometry relative="1" as="geometry">
            <Array as="points">
              <mxPoint x="129" y="460" />
              <mxPoint x="85" y="460" />
            </Array>
          </mxGeometry>
        </mxCell>
        <mxCell id="pGls_qhn8D-zngaLaQQu-3" value="Length" style="ellipse;whiteSpace=wrap;html=1;align=center;" parent="1" vertex="1">
          <mxGeometry x="108" y="410" width="42" height="40" as="geometry" />
        </mxCell>
        <mxCell id="pGls_qhn8D-zngaLaQQu-9" style="edgeStyle=orthogonalEdgeStyle;shape=connector;rounded=0;orthogonalLoop=1;jettySize=auto;html=1;strokeColor=default;align=center;verticalAlign=middle;fontFamily=Helvetica;fontSize=11;fontColor=default;labelBackgroundColor=default;endArrow=none;endFill=0;" parent="1" source="pGls_qhn8D-zngaLaQQu-4" target="ZmDCDeHjcGQ9Co0sPI0v-1" edge="1">
          <mxGeometry relative="1" as="geometry">
            <Array as="points">
              <mxPoint x="120" y="540" />
            </Array>
          </mxGeometry>
        </mxCell>
        <mxCell id="pGls_qhn8D-zngaLaQQu-4" value="Dimensions" style="ellipse;whiteSpace=wrap;html=1;align=center;" parent="1" vertex="1">
          <mxGeometry x="45" y="473" width="80" height="40" as="geometry" />
        </mxCell>
        <mxCell id="JhOn6GFMnQxz6NwhYtyI-1" value="SUPPLIER" style="whiteSpace=wrap;html=1;align=center;fontFamily=Helvetica;fontSize=11;fontColor=default;labelBackgroundColor=default;strokeWidth=1;arcSize=12;" parent="1" vertex="1">
          <mxGeometry x="132" y="880" width="100" height="40" as="geometry" />
        </mxCell>
        <mxCell id="S0Rb-i1IFxb-rZdg_ujg-3" style="edgeStyle=orthogonalEdgeStyle;shape=connector;rounded=0;orthogonalLoop=1;jettySize=auto;html=1;strokeColor=default;align=center;verticalAlign=middle;fontFamily=Helvetica;fontSize=11;fontColor=default;labelBackgroundColor=default;endArrow=none;endFill=0;" parent="1" source="S0Rb-i1IFxb-rZdg_ujg-1" target="JhOn6GFMnQxz6NwhYtyI-1" edge="1">
          <mxGeometry relative="1" as="geometry">
            <mxPoint x="181" y="760" as="sourcePoint" />
            <mxPoint x="181" y="880" as="targetPoint" />
          </mxGeometry>
        </mxCell>
        <mxCell id="S0Rb-i1IFxb-rZdg_ujg-1" value="SUPPLY" style="shape=rhombus;perimeter=rhombusPerimeter;whiteSpace=wrap;html=1;align=center;fontFamily=Helvetica;fontSize=11;fontColor=default;labelBackgroundColor=default;strokeWidth=1;arcSize=12;" parent="1" vertex="1">
          <mxGeometry x="138" y="700" width="88" height="60" as="geometry" />
        </mxCell>
        <mxCell id="7AvwcNKPecBmxQz5U4Vg-6" style="edgeStyle=orthogonalEdgeStyle;shape=connector;rounded=0;orthogonalLoop=1;jettySize=auto;html=1;strokeColor=default;align=center;verticalAlign=middle;fontFamily=Helvetica;fontSize=11;fontColor=default;labelBackgroundColor=default;endArrow=none;endFill=0;" parent="1" source="7AvwcNKPecBmxQz5U4Vg-1" target="JhOn6GFMnQxz6NwhYtyI-1" edge="1">
          <mxGeometry relative="1" as="geometry">
            <Array as="points">
              <mxPoint x="80" y="940" />
              <mxPoint x="182" y="940" />
            </Array>
          </mxGeometry>
        </mxCell>
        <mxCell id="7AvwcNKPecBmxQz5U4Vg-1" value="&lt;u&gt;Supplier_name&lt;/u&gt;" style="ellipse;whiteSpace=wrap;html=1;align=center;fontFamily=Helvetica;fontSize=11;fontColor=default;labelBackgroundColor=default;" parent="1" vertex="1">
          <mxGeometry x="40" y="950" width="80" height="40" as="geometry" />
        </mxCell>
        <mxCell id="7AvwcNKPecBmxQz5U4Vg-4" style="edgeStyle=orthogonalEdgeStyle;shape=connector;rounded=0;orthogonalLoop=1;jettySize=auto;html=1;strokeColor=default;align=center;verticalAlign=middle;fontFamily=Helvetica;fontSize=11;fontColor=default;labelBackgroundColor=default;endArrow=none;endFill=0;" parent="1" source="7AvwcNKPecBmxQz5U4Vg-2" target="JhOn6GFMnQxz6NwhYtyI-1" edge="1">
          <mxGeometry relative="1" as="geometry">
            <Array as="points">
              <mxPoint x="288" y="940" />
              <mxPoint x="182" y="940" />
            </Array>
          </mxGeometry>
        </mxCell>
        <mxCell id="7AvwcNKPecBmxQz5U4Vg-2" value="Website" style="ellipse;whiteSpace=wrap;html=1;align=center;fontStyle=4;fontFamily=Helvetica;fontSize=11;fontColor=default;labelBackgroundColor=default;" parent="1" vertex="1">
          <mxGeometry x="250" y="950" width="76" height="40" as="geometry" />
        </mxCell>
        <mxCell id="7AvwcNKPecBmxQz5U4Vg-5" style="edgeStyle=orthogonalEdgeStyle;shape=connector;rounded=0;orthogonalLoop=1;jettySize=auto;html=1;strokeColor=default;align=center;verticalAlign=middle;fontFamily=Helvetica;fontSize=11;fontColor=default;labelBackgroundColor=default;endArrow=none;endFill=0;" parent="1" source="7AvwcNKPecBmxQz5U4Vg-3" target="JhOn6GFMnQxz6NwhYtyI-1" edge="1">
          <mxGeometry relative="1" as="geometry" />
        </mxCell>
        <mxCell id="7AvwcNKPecBmxQz5U4Vg-3" value="Contact_person" style="ellipse;whiteSpace=wrap;html=1;align=center;fontFamily=Helvetica;fontSize=11;fontColor=default;labelBackgroundColor=default;" parent="1" vertex="1">
          <mxGeometry x="132" y="950" width="100" height="40" as="geometry" />
        </mxCell>
        <mxCell id="DNhm4AhBd02FCmJ3SIk5-4" style="edgeStyle=orthogonalEdgeStyle;shape=connector;rounded=0;orthogonalLoop=1;jettySize=auto;html=1;strokeColor=default;align=center;verticalAlign=middle;fontFamily=Helvetica;fontSize=11;fontColor=default;labelBackgroundColor=default;endArrow=none;endFill=0;" parent="1" source="DNhm4AhBd02FCmJ3SIk5-1" target="7AvwcNKPecBmxQz5U4Vg-3" edge="1">
          <mxGeometry relative="1" as="geometry" />
        </mxCell>
        <mxCell id="DNhm4AhBd02FCmJ3SIk5-1" value="Name" style="ellipse;whiteSpace=wrap;html=1;align=center;fontFamily=Helvetica;fontSize=11;fontColor=default;labelBackgroundColor=default;" parent="1" vertex="1">
          <mxGeometry x="154" y="1010" width="56" height="40" as="geometry" />
        </mxCell>
        <mxCell id="DNhm4AhBd02FCmJ3SIk5-6" style="edgeStyle=orthogonalEdgeStyle;shape=connector;rounded=0;orthogonalLoop=1;jettySize=auto;html=1;strokeColor=default;align=center;verticalAlign=middle;fontFamily=Helvetica;fontSize=11;fontColor=default;labelBackgroundColor=default;endArrow=none;endFill=0;" parent="1" source="DNhm4AhBd02FCmJ3SIk5-2" target="7AvwcNKPecBmxQz5U4Vg-3" edge="1">
          <mxGeometry relative="1" as="geometry">
            <Array as="points">
              <mxPoint x="118" y="1000" />
              <mxPoint x="182" y="1000" />
            </Array>
          </mxGeometry>
        </mxCell>
        <mxCell id="DNhm4AhBd02FCmJ3SIk5-2" value="Email" style="ellipse;whiteSpace=wrap;html=1;align=center;fontFamily=Helvetica;fontSize=11;fontColor=default;labelBackgroundColor=default;" parent="1" vertex="1">
          <mxGeometry x="88" y="1010" width="60" height="40" as="geometry" />
        </mxCell>
        <mxCell id="DNhm4AhBd02FCmJ3SIk5-7" style="edgeStyle=orthogonalEdgeStyle;shape=connector;rounded=0;orthogonalLoop=1;jettySize=auto;html=1;strokeColor=default;align=center;verticalAlign=middle;fontFamily=Helvetica;fontSize=11;fontColor=default;labelBackgroundColor=default;endArrow=none;endFill=0;" parent="1" source="DNhm4AhBd02FCmJ3SIk5-3" target="7AvwcNKPecBmxQz5U4Vg-3" edge="1">
          <mxGeometry relative="1" as="geometry">
            <Array as="points">
              <mxPoint x="269" y="1000" />
              <mxPoint x="182" y="1000" />
            </Array>
          </mxGeometry>
        </mxCell>
        <mxCell id="DNhm4AhBd02FCmJ3SIk5-3" value="Phone_number" style="ellipse;whiteSpace=wrap;html=1;align=center;fontFamily=Helvetica;fontSize=11;fontColor=default;labelBackgroundColor=default;" parent="1" vertex="1">
          <mxGeometry x="219" y="1010" width="100" height="40" as="geometry" />
        </mxCell>
        <mxCell id="v2nrsgB9GTqTx1fIbnaC-3" style="edgeStyle=orthogonalEdgeStyle;shape=connector;rounded=0;orthogonalLoop=1;jettySize=auto;html=1;strokeColor=default;align=center;verticalAlign=middle;fontFamily=Helvetica;fontSize=11;fontColor=default;labelBackgroundColor=default;endArrow=none;endFill=0;" parent="1" source="v2nrsgB9GTqTx1fIbnaC-1" target="DNhm4AhBd02FCmJ3SIk5-1" edge="1">
          <mxGeometry relative="1" as="geometry">
            <Array as="points">
              <mxPoint x="219" y="1070" />
              <mxPoint x="182" y="1070" />
            </Array>
          </mxGeometry>
        </mxCell>
        <mxCell id="v2nrsgB9GTqTx1fIbnaC-1" value="Last_name" style="ellipse;whiteSpace=wrap;html=1;align=center;fontFamily=Helvetica;fontSize=11;fontColor=default;labelBackgroundColor=default;" parent="1" vertex="1">
          <mxGeometry x="179" y="1080" width="80" height="40" as="geometry" />
        </mxCell>
        <mxCell id="v2nrsgB9GTqTx1fIbnaC-4" style="edgeStyle=orthogonalEdgeStyle;shape=connector;rounded=0;orthogonalLoop=1;jettySize=auto;html=1;strokeColor=default;align=center;verticalAlign=middle;fontFamily=Helvetica;fontSize=11;fontColor=default;labelBackgroundColor=default;endArrow=none;endFill=0;" parent="1" source="v2nrsgB9GTqTx1fIbnaC-2" target="DNhm4AhBd02FCmJ3SIk5-1" edge="1">
          <mxGeometry relative="1" as="geometry">
            <Array as="points">
              <mxPoint x="130" y="1070" />
              <mxPoint x="182" y="1070" />
            </Array>
          </mxGeometry>
        </mxCell>
        <mxCell id="v2nrsgB9GTqTx1fIbnaC-2" value="First_name" style="ellipse;whiteSpace=wrap;html=1;align=center;fontFamily=Helvetica;fontSize=11;fontColor=default;labelBackgroundColor=default;" parent="1" vertex="1">
          <mxGeometry x="90" y="1080" width="80" height="40" as="geometry" />
        </mxCell>
        <mxCell id="KUZXssvCnWUthsy9ei0v-5" style="edgeStyle=orthogonalEdgeStyle;shape=connector;rounded=0;orthogonalLoop=1;jettySize=auto;html=1;strokeColor=default;align=center;verticalAlign=middle;fontFamily=Helvetica;fontSize=11;fontColor=default;labelBackgroundColor=default;endArrow=none;endFill=0;" parent="1" source="KUZXssvCnWUthsy9ei0v-1" target="KUZXssvCnWUthsy9ei0v-3" edge="1">
          <mxGeometry relative="1" as="geometry" />
        </mxCell>
        <mxCell id="KUZXssvCnWUthsy9ei0v-1" value="Shelf_location" style="ellipse;whiteSpace=wrap;html=1;align=center;fontFamily=Helvetica;fontSize=11;fontColor=default;labelBackgroundColor=default;" parent="1" vertex="1">
          <mxGeometry x="672" y="440" width="100" height="40" as="geometry" />
        </mxCell>
        <mxCell id="KUZXssvCnWUthsy9ei0v-6" style="edgeStyle=orthogonalEdgeStyle;shape=connector;rounded=0;orthogonalLoop=1;jettySize=auto;html=1;strokeColor=default;align=center;verticalAlign=middle;fontFamily=Helvetica;fontSize=11;fontColor=default;labelBackgroundColor=default;endArrow=none;endFill=0;" parent="1" source="KUZXssvCnWUthsy9ei0v-2" target="KUZXssvCnWUthsy9ei0v-3" edge="1">
          <mxGeometry relative="1" as="geometry" />
        </mxCell>
        <mxCell id="KUZXssvCnWUthsy9ei0v-2" value="Quantity" style="ellipse;whiteSpace=wrap;html=1;align=center;" parent="1" vertex="1">
          <mxGeometry x="672" y="393" width="60" height="40" as="geometry" />
        </mxCell>
        <mxCell id="KUZXssvCnWUthsy9ei0v-7" style="edgeStyle=orthogonalEdgeStyle;shape=link;rounded=0;orthogonalLoop=1;jettySize=auto;html=1;strokeColor=default;align=center;verticalAlign=middle;fontFamily=Helvetica;fontSize=11;fontColor=default;labelBackgroundColor=default;endArrow=none;endFill=0;" parent="1" source="KUZXssvCnWUthsy9ei0v-3" target="ZmDCDeHjcGQ9Co0sPI0v-1" edge="1">
          <mxGeometry relative="1" as="geometry">
            <Array as="points">
              <mxPoint x="590" y="490" />
              <mxPoint x="200" y="490" />
            </Array>
          </mxGeometry>
        </mxCell>
        <mxCell id="KUZXssvCnWUthsy9ei0v-3" value="LOCATED_IN" style="shape=rhombus;perimeter=rhombusPerimeter;whiteSpace=wrap;html=1;align=center;fontFamily=Helvetica;fontSize=11;fontColor=default;labelBackgroundColor=default;" parent="1" vertex="1">
          <mxGeometry x="537" y="413" width="105" height="60" as="geometry" />
        </mxCell>
        <mxCell id="kokFCyJbnN9iv-7lQyEw-12" style="edgeStyle=orthogonalEdgeStyle;shape=connector;rounded=0;orthogonalLoop=1;jettySize=auto;html=1;strokeColor=default;align=center;verticalAlign=middle;fontFamily=Helvetica;fontSize=11;fontColor=default;labelBackgroundColor=default;endArrow=none;endFill=0;" parent="1" source="h9873lf0CLFDN7wGxpoM-1" target="kokFCyJbnN9iv-7lQyEw-1" edge="1">
          <mxGeometry relative="1" as="geometry" />
        </mxCell>
        <mxCell id="bH_ilqtFa3n89gZaBH1b-4" style="edgeStyle=orthogonalEdgeStyle;shape=connector;rounded=0;orthogonalLoop=1;jettySize=auto;html=1;strokeColor=default;align=center;verticalAlign=middle;fontFamily=Helvetica;fontSize=11;fontColor=default;labelBackgroundColor=default;endArrow=none;endFill=0;" parent="1" source="h9873lf0CLFDN7wGxpoM-1" target="bH_ilqtFa3n89gZaBH1b-1" edge="1">
          <mxGeometry relative="1" as="geometry" />
        </mxCell>
        <mxCell id="h9873lf0CLFDN7wGxpoM-1" value="CUSTOMER" style="whiteSpace=wrap;html=1;align=center;fontFamily=Helvetica;fontSize=11;fontColor=default;labelBackgroundColor=default;strokeWidth=1;arcSize=12;" parent="1" vertex="1">
          <mxGeometry x="756" y="958" width="100" height="40" as="geometry" />
        </mxCell>
        <mxCell id="Cre19dmllkW03TnwUZXB-21" style="edgeStyle=orthogonalEdgeStyle;shape=connector;rounded=0;orthogonalLoop=1;jettySize=auto;html=1;strokeColor=default;align=center;verticalAlign=middle;fontFamily=Helvetica;fontSize=11;fontColor=default;labelBackgroundColor=default;endArrow=none;endFill=0;" parent="1" source="h9873lf0CLFDN7wGxpoM-2" target="h9873lf0CLFDN7wGxpoM-1" edge="1">
          <mxGeometry relative="1" as="geometry">
            <Array as="points">
              <mxPoint x="619" y="1010" />
              <mxPoint x="810" y="1010" />
            </Array>
          </mxGeometry>
        </mxCell>
        <mxCell id="h9873lf0CLFDN7wGxpoM-2" value="Password_hashed" style="ellipse;whiteSpace=wrap;html=1;align=center;" parent="1" vertex="1">
          <mxGeometry x="559" y="1030" width="120" height="40" as="geometry" />
        </mxCell>
        <mxCell id="Cre19dmllkW03TnwUZXB-25" style="edgeStyle=orthogonalEdgeStyle;shape=connector;rounded=0;orthogonalLoop=1;jettySize=auto;html=1;strokeColor=default;align=center;verticalAlign=middle;fontFamily=Helvetica;fontSize=11;fontColor=default;labelBackgroundColor=default;endArrow=none;endFill=0;" parent="1" source="h9873lf0CLFDN7wGxpoM-3" target="h9873lf0CLFDN7wGxpoM-1" edge="1">
          <mxGeometry relative="1" as="geometry">
            <Array as="points">
              <mxPoint x="980" y="1010" />
              <mxPoint x="810" y="1010" />
            </Array>
          </mxGeometry>
        </mxCell>
        <mxCell id="h9873lf0CLFDN7wGxpoM-3" value="Email" style="ellipse;whiteSpace=wrap;html=1;align=center;" parent="1" vertex="1">
          <mxGeometry x="950" y="1032" width="60" height="40" as="geometry" />
        </mxCell>
        <mxCell id="Cre19dmllkW03TnwUZXB-24" style="edgeStyle=orthogonalEdgeStyle;shape=connector;rounded=0;orthogonalLoop=1;jettySize=auto;html=1;strokeColor=default;align=center;verticalAlign=middle;fontFamily=Helvetica;fontSize=11;fontColor=default;labelBackgroundColor=default;endArrow=none;endFill=0;" parent="1" source="h9873lf0CLFDN7wGxpoM-4" target="h9873lf0CLFDN7wGxpoM-1" edge="1">
          <mxGeometry relative="1" as="geometry">
            <Array as="points">
              <mxPoint x="890" y="1010" />
              <mxPoint x="810" y="1010" />
            </Array>
          </mxGeometry>
        </mxCell>
        <mxCell id="h9873lf0CLFDN7wGxpoM-4" value="&lt;u&gt;Phone_number&lt;/u&gt;" style="ellipse;whiteSpace=wrap;html=1;align=center;" parent="1" vertex="1">
          <mxGeometry x="840" y="1030" width="100" height="40" as="geometry" />
        </mxCell>
        <mxCell id="Cre19dmllkW03TnwUZXB-22" style="edgeStyle=orthogonalEdgeStyle;shape=connector;rounded=0;orthogonalLoop=1;jettySize=auto;html=1;strokeColor=default;align=center;verticalAlign=middle;fontFamily=Helvetica;fontSize=11;fontColor=default;labelBackgroundColor=default;endArrow=none;endFill=0;" parent="1" edge="1">
          <mxGeometry relative="1" as="geometry">
            <mxPoint x="757" y="1030" as="sourcePoint" />
            <mxPoint x="810.0256410256411" y="998" as="targetPoint" />
            <Array as="points">
              <mxPoint x="757" y="1010" />
              <mxPoint x="810" y="1010" />
            </Array>
          </mxGeometry>
        </mxCell>
        <mxCell id="h9873lf0CLFDN7wGxpoM-5" value="Registration_date" style="ellipse;whiteSpace=wrap;html=1;align=center;" parent="1" vertex="1">
          <mxGeometry x="687" y="1030" width="140" height="40" as="geometry" />
        </mxCell>
        <mxCell id="Cre19dmllkW03TnwUZXB-27" style="edgeStyle=orthogonalEdgeStyle;shape=connector;rounded=0;orthogonalLoop=1;jettySize=auto;html=1;strokeColor=default;align=center;verticalAlign=middle;fontFamily=Helvetica;fontSize=11;fontColor=default;labelBackgroundColor=default;endArrow=none;endFill=0;" parent="1" source="h9873lf0CLFDN7wGxpoM-6" target="h9873lf0CLFDN7wGxpoM-1" edge="1">
          <mxGeometry relative="1" as="geometry">
            <Array as="points">
              <mxPoint x="1108" y="1010" />
              <mxPoint x="810" y="1010" />
            </Array>
          </mxGeometry>
        </mxCell>
        <mxCell id="h9873lf0CLFDN7wGxpoM-6" value="Gender" style="ellipse;whiteSpace=wrap;html=1;align=center;fontFamily=Helvetica;fontSize=11;fontColor=default;labelBackgroundColor=default;" parent="1" vertex="1">
          <mxGeometry x="1078" y="1032" width="60" height="40" as="geometry" />
        </mxCell>
        <mxCell id="Cre19dmllkW03TnwUZXB-19" style="edgeStyle=orthogonalEdgeStyle;shape=connector;rounded=0;orthogonalLoop=1;jettySize=auto;html=1;strokeColor=default;align=center;verticalAlign=middle;fontFamily=Helvetica;fontSize=11;fontColor=default;labelBackgroundColor=default;endArrow=none;endFill=0;" parent="1" source="h9873lf0CLFDN7wGxpoM-7" target="h9873lf0CLFDN7wGxpoM-1" edge="1">
          <mxGeometry relative="1" as="geometry">
            <Array as="points">
              <mxPoint x="428" y="1010" />
              <mxPoint x="810" y="1010" />
            </Array>
          </mxGeometry>
        </mxCell>
        <mxCell id="h9873lf0CLFDN7wGxpoM-7" value="Date_of_birth" style="ellipse;whiteSpace=wrap;html=1;align=center;" parent="1" vertex="1">
          <mxGeometry x="378" y="1030" width="100" height="40" as="geometry" />
        </mxCell>
        <mxCell id="Cre19dmllkW03TnwUZXB-26" style="edgeStyle=orthogonalEdgeStyle;shape=connector;rounded=0;orthogonalLoop=1;jettySize=auto;html=1;strokeColor=default;align=center;verticalAlign=middle;fontFamily=Helvetica;fontSize=11;fontColor=default;labelBackgroundColor=default;endArrow=none;endFill=0;" parent="1" edge="1">
          <mxGeometry relative="1" as="geometry">
            <mxPoint x="1043" y="1030" as="sourcePoint" />
            <mxPoint x="806" y="998" as="targetPoint" />
            <Array as="points">
              <mxPoint x="1043" y="1010" />
              <mxPoint x="810" y="1010" />
              <mxPoint x="810" y="998" />
            </Array>
          </mxGeometry>
        </mxCell>
        <mxCell id="Cre19dmllkW03TnwUZXB-2" value="Name" style="ellipse;whiteSpace=wrap;html=1;align=center;fontFamily=Helvetica;fontSize=11;fontColor=default;labelBackgroundColor=default;" parent="1" vertex="1">
          <mxGeometry x="1017" y="1032" width="52" height="40" as="geometry" />
        </mxCell>
        <mxCell id="Cre19dmllkW03TnwUZXB-3" value="Last_name" style="ellipse;whiteSpace=wrap;html=1;align=center;fontFamily=Helvetica;fontSize=11;fontColor=default;labelBackgroundColor=default;" parent="1" vertex="1">
          <mxGeometry x="1043" y="1100" width="88" height="40" as="geometry" />
        </mxCell>
        <mxCell id="Cre19dmllkW03TnwUZXB-4" value="First_name" style="ellipse;whiteSpace=wrap;html=1;align=center;fontFamily=Helvetica;fontSize=11;fontColor=default;labelBackgroundColor=default;" parent="1" vertex="1">
          <mxGeometry x="956" y="1100" width="80" height="40" as="geometry" />
        </mxCell>
        <mxCell id="Cre19dmllkW03TnwUZXB-5" value="" style="endArrow=none;html=1;rounded=0;strokeColor=default;align=center;verticalAlign=middle;fontFamily=Helvetica;fontSize=11;fontColor=default;labelBackgroundColor=default;edgeStyle=orthogonalEdgeStyle;" parent="1" source="Cre19dmllkW03TnwUZXB-4" target="Cre19dmllkW03TnwUZXB-2" edge="1">
          <mxGeometry relative="1" as="geometry">
            <mxPoint x="753" y="1240" as="sourcePoint" />
            <mxPoint x="913" y="1240" as="targetPoint" />
          </mxGeometry>
        </mxCell>
        <mxCell id="Cre19dmllkW03TnwUZXB-6" value="" style="endArrow=none;html=1;rounded=0;strokeColor=default;align=center;verticalAlign=middle;fontFamily=Helvetica;fontSize=11;fontColor=default;labelBackgroundColor=default;edgeStyle=orthogonalEdgeStyle;" parent="1" source="Cre19dmllkW03TnwUZXB-2" target="Cre19dmllkW03TnwUZXB-3" edge="1">
          <mxGeometry relative="1" as="geometry">
            <mxPoint x="753" y="1240" as="sourcePoint" />
            <mxPoint x="913" y="1240" as="targetPoint" />
          </mxGeometry>
        </mxCell>
        <mxCell id="Cre19dmllkW03TnwUZXB-13" style="edgeStyle=orthogonalEdgeStyle;shape=connector;rounded=0;orthogonalLoop=1;jettySize=auto;html=1;strokeColor=default;align=center;verticalAlign=middle;fontFamily=Helvetica;fontSize=11;fontColor=default;labelBackgroundColor=default;endArrow=none;endFill=0;" parent="1" source="Cre19dmllkW03TnwUZXB-7" target="Cre19dmllkW03TnwUZXB-10" edge="1">
          <mxGeometry relative="1" as="geometry" />
        </mxCell>
        <mxCell id="Cre19dmllkW03TnwUZXB-20" style="edgeStyle=orthogonalEdgeStyle;shape=connector;rounded=0;orthogonalLoop=1;jettySize=auto;html=1;strokeColor=default;align=center;verticalAlign=middle;fontFamily=Helvetica;fontSize=11;fontColor=default;labelBackgroundColor=default;endArrow=none;endFill=0;" parent="1" edge="1">
          <mxGeometry relative="1" as="geometry">
            <mxPoint x="518" y="1030" as="sourcePoint" />
            <mxPoint x="810.0256410256411" y="998" as="targetPoint" />
            <Array as="points">
              <mxPoint x="518" y="1010" />
              <mxPoint x="810" y="1010" />
            </Array>
          </mxGeometry>
        </mxCell>
        <mxCell id="Cre19dmllkW03TnwUZXB-7" value="Address" style="ellipse;whiteSpace=wrap;html=1;align=center;fontFamily=Helvetica;fontSize=11;fontColor=default;labelBackgroundColor=default;" parent="1" vertex="1">
          <mxGeometry x="488" y="1030" width="60" height="40" as="geometry" />
        </mxCell>
        <mxCell id="Cre19dmllkW03TnwUZXB-14" style="edgeStyle=orthogonalEdgeStyle;shape=connector;rounded=0;orthogonalLoop=1;jettySize=auto;html=1;strokeColor=default;align=center;verticalAlign=middle;fontFamily=Helvetica;fontSize=11;fontColor=default;labelBackgroundColor=default;endArrow=none;endFill=0;" parent="1" source="Cre19dmllkW03TnwUZXB-8" target="Cre19dmllkW03TnwUZXB-7" edge="1">
          <mxGeometry relative="1" as="geometry">
            <Array as="points">
              <mxPoint x="453" y="1080" />
              <mxPoint x="518" y="1080" />
            </Array>
          </mxGeometry>
        </mxCell>
        <mxCell id="Cre19dmllkW03TnwUZXB-8" value="State" style="ellipse;whiteSpace=wrap;html=1;align=center;" parent="1" vertex="1">
          <mxGeometry x="423" y="1090" width="60" height="40" as="geometry" />
        </mxCell>
        <mxCell id="Cre19dmllkW03TnwUZXB-15" style="edgeStyle=orthogonalEdgeStyle;shape=connector;rounded=0;orthogonalLoop=1;jettySize=auto;html=1;strokeColor=default;align=center;verticalAlign=middle;fontFamily=Helvetica;fontSize=11;fontColor=default;labelBackgroundColor=default;endArrow=none;endFill=0;" parent="1" source="Cre19dmllkW03TnwUZXB-9" target="Cre19dmllkW03TnwUZXB-7" edge="1">
          <mxGeometry relative="1" as="geometry">
            <Array as="points">
              <mxPoint x="386" y="1080" />
              <mxPoint x="518" y="1080" />
            </Array>
          </mxGeometry>
        </mxCell>
        <mxCell id="Cre19dmllkW03TnwUZXB-9" value="Country" style="ellipse;whiteSpace=wrap;html=1;align=center;" parent="1" vertex="1">
          <mxGeometry x="356" y="1090" width="60" height="40" as="geometry" />
        </mxCell>
        <mxCell id="Cre19dmllkW03TnwUZXB-10" value="Street" style="ellipse;whiteSpace=wrap;html=1;align=center;" parent="1" vertex="1">
          <mxGeometry x="488" y="1090" width="60" height="40" as="geometry" />
        </mxCell>
        <mxCell id="Cre19dmllkW03TnwUZXB-18" style="edgeStyle=orthogonalEdgeStyle;shape=connector;rounded=0;orthogonalLoop=1;jettySize=auto;html=1;strokeColor=default;align=center;verticalAlign=middle;fontFamily=Helvetica;fontSize=11;fontColor=default;labelBackgroundColor=default;endArrow=none;endFill=0;" parent="1" source="Cre19dmllkW03TnwUZXB-11" target="Cre19dmllkW03TnwUZXB-7" edge="1">
          <mxGeometry relative="1" as="geometry">
            <Array as="points">
              <mxPoint x="648" y="1080" />
              <mxPoint x="518" y="1080" />
            </Array>
          </mxGeometry>
        </mxCell>
        <mxCell id="Cre19dmllkW03TnwUZXB-11" value="Apartment" style="ellipse;whiteSpace=wrap;html=1;align=center;" parent="1" vertex="1">
          <mxGeometry x="618" y="1090" width="60" height="40" as="geometry" />
        </mxCell>
        <mxCell id="Cre19dmllkW03TnwUZXB-16" style="edgeStyle=orthogonalEdgeStyle;shape=connector;rounded=0;orthogonalLoop=1;jettySize=auto;html=1;strokeColor=default;align=center;verticalAlign=middle;fontFamily=Helvetica;fontSize=11;fontColor=default;labelBackgroundColor=default;endArrow=none;endFill=0;" parent="1" source="Cre19dmllkW03TnwUZXB-12" target="Cre19dmllkW03TnwUZXB-7" edge="1">
          <mxGeometry relative="1" as="geometry">
            <Array as="points">
              <mxPoint x="583" y="1080" />
              <mxPoint x="518" y="1080" />
            </Array>
          </mxGeometry>
        </mxCell>
        <mxCell id="Cre19dmllkW03TnwUZXB-12" value="Building" style="ellipse;whiteSpace=wrap;html=1;align=center;" parent="1" vertex="1">
          <mxGeometry x="553" y="1090" width="60" height="40" as="geometry" />
        </mxCell>
        <mxCell id="kokFCyJbnN9iv-7lQyEw-14" style="edgeStyle=orthogonalEdgeStyle;shape=connector;rounded=0;orthogonalLoop=1;jettySize=auto;html=1;strokeColor=default;align=center;verticalAlign=middle;fontFamily=Helvetica;fontSize=11;fontColor=default;labelBackgroundColor=default;endArrow=none;endFill=0;" parent="1" source="kokFCyJbnN9iv-7lQyEw-1" target="ZmDCDeHjcGQ9Co0sPI0v-1" edge="1">
          <mxGeometry relative="1" as="geometry">
            <Array as="points">
              <mxPoint x="361" y="700" />
              <mxPoint x="200" y="700" />
            </Array>
          </mxGeometry>
        </mxCell>
        <mxCell id="kokFCyJbnN9iv-7lQyEw-1" value="REVIEWS" style="shape=rhombus;perimeter=rhombusPerimeter;whiteSpace=wrap;html=1;align=center;fontFamily=Helvetica;fontSize=11;fontColor=default;labelBackgroundColor=default;" parent="1" vertex="1">
          <mxGeometry x="311" y="860" width="99" height="60" as="geometry" />
        </mxCell>
        <mxCell id="kokFCyJbnN9iv-7lQyEw-8" style="edgeStyle=orthogonalEdgeStyle;shape=connector;rounded=0;orthogonalLoop=1;jettySize=auto;html=1;strokeColor=default;align=center;verticalAlign=middle;fontFamily=Helvetica;fontSize=11;fontColor=default;labelBackgroundColor=default;endArrow=none;endFill=0;" parent="1" source="kokFCyJbnN9iv-7lQyEw-2" edge="1">
          <mxGeometry relative="1" as="geometry">
            <Array as="points">
              <mxPoint x="420" y="745" />
              <mxPoint x="420" y="890" />
            </Array>
            <mxPoint x="410" y="890" as="targetPoint" />
          </mxGeometry>
        </mxCell>
        <mxCell id="kokFCyJbnN9iv-7lQyEw-2" value="Rating" style="ellipse;whiteSpace=wrap;html=1;align=center;fontFamily=Helvetica;fontSize=11;fontColor=default;labelBackgroundColor=default;" parent="1" vertex="1">
          <mxGeometry x="440" y="724.5" width="56" height="40" as="geometry" />
        </mxCell>
        <mxCell id="kokFCyJbnN9iv-7lQyEw-7" style="edgeStyle=orthogonalEdgeStyle;shape=connector;rounded=0;orthogonalLoop=1;jettySize=auto;html=1;strokeColor=default;align=center;verticalAlign=middle;fontFamily=Helvetica;fontSize=11;fontColor=default;labelBackgroundColor=default;endArrow=none;endFill=0;" parent="1" source="kokFCyJbnN9iv-7lQyEw-3" edge="1">
          <mxGeometry relative="1" as="geometry">
            <Array as="points">
              <mxPoint x="420" y="696" />
              <mxPoint x="420" y="890" />
            </Array>
            <mxPoint x="410" y="890" as="targetPoint" />
          </mxGeometry>
        </mxCell>
        <mxCell id="kokFCyJbnN9iv-7lQyEw-3" value="Review_date" style="ellipse;whiteSpace=wrap;html=1;align=center;fontFamily=Helvetica;fontSize=11;fontColor=default;labelBackgroundColor=default;" parent="1" vertex="1">
          <mxGeometry x="440" y="676" width="78" height="40" as="geometry" />
        </mxCell>
        <mxCell id="kokFCyJbnN9iv-7lQyEw-10" style="edgeStyle=orthogonalEdgeStyle;shape=connector;rounded=0;orthogonalLoop=1;jettySize=auto;html=1;strokeColor=default;align=center;verticalAlign=middle;fontFamily=Helvetica;fontSize=11;fontColor=default;labelBackgroundColor=default;endArrow=none;endFill=0;" parent="1" source="kokFCyJbnN9iv-7lQyEw-4" edge="1">
          <mxGeometry relative="1" as="geometry">
            <Array as="points">
              <mxPoint x="420" y="840" />
              <mxPoint x="420" y="890" />
            </Array>
            <mxPoint x="410" y="890" as="targetPoint" />
          </mxGeometry>
        </mxCell>
        <mxCell id="kokFCyJbnN9iv-7lQyEw-4" value="Comment" style="ellipse;whiteSpace=wrap;html=1;align=center;fontFamily=Helvetica;fontSize=11;fontColor=default;labelBackgroundColor=default;" parent="1" vertex="1">
          <mxGeometry x="440" y="820" width="64" height="40" as="geometry" />
        </mxCell>
        <mxCell id="kokFCyJbnN9iv-7lQyEw-9" style="edgeStyle=orthogonalEdgeStyle;shape=connector;rounded=0;orthogonalLoop=1;jettySize=auto;html=1;strokeColor=default;align=center;verticalAlign=middle;fontFamily=Helvetica;fontSize=11;fontColor=default;labelBackgroundColor=default;endArrow=none;endFill=0;" parent="1" source="kokFCyJbnN9iv-7lQyEw-5" edge="1">
          <mxGeometry relative="1" as="geometry">
            <Array as="points">
              <mxPoint x="420" y="792" />
              <mxPoint x="420" y="890" />
            </Array>
            <mxPoint x="410" y="890" as="targetPoint" />
          </mxGeometry>
        </mxCell>
        <mxCell id="kokFCyJbnN9iv-7lQyEw-5" value="Image_URLs" style="ellipse;shape=doubleEllipse;margin=3;whiteSpace=wrap;html=1;align=center;fontFamily=Helvetica;fontSize=11;fontColor=default;labelBackgroundColor=default;" parent="1" vertex="1">
          <mxGeometry x="440" y="772" width="100" height="40" as="geometry" />
        </mxCell>
        <mxCell id="kokFCyJbnN9iv-7lQyEw-11" style="edgeStyle=orthogonalEdgeStyle;shape=connector;rounded=0;orthogonalLoop=1;jettySize=auto;html=1;strokeColor=default;align=center;verticalAlign=middle;fontFamily=Helvetica;fontSize=11;fontColor=default;labelBackgroundColor=default;endArrow=none;endFill=0;" parent="1" source="kokFCyJbnN9iv-7lQyEw-6" edge="1">
          <mxGeometry relative="1" as="geometry">
            <mxPoint x="410" y="890" as="targetPoint" />
          </mxGeometry>
        </mxCell>
        <mxCell id="kokFCyJbnN9iv-7lQyEw-6" value="Description" style="ellipse;whiteSpace=wrap;html=1;align=center;fontFamily=Helvetica;fontSize=11;fontColor=default;labelBackgroundColor=default;" parent="1" vertex="1">
          <mxGeometry x="440" y="870" width="72" height="40" as="geometry" />
        </mxCell>
        <mxCell id="YIxFrYYdF3xTyE7wbsBq-6" style="edgeStyle=orthogonalEdgeStyle;shape=connector;rounded=0;orthogonalLoop=1;jettySize=auto;html=1;strokeColor=default;align=center;verticalAlign=middle;fontFamily=Helvetica;fontSize=11;fontColor=default;labelBackgroundColor=default;endArrow=none;endFill=0;" parent="1" source="YIxFrYYdF3xTyE7wbsBq-1" target="YIxFrYYdF3xTyE7wbsBq-5" edge="1">
          <mxGeometry relative="1" as="geometry">
            <Array as="points">
              <mxPoint x="371" y="640" />
              <mxPoint x="336" y="640" />
            </Array>
          </mxGeometry>
        </mxCell>
        <mxCell id="YIxFrYYdF3xTyE7wbsBq-7" style="edgeStyle=orthogonalEdgeStyle;shape=connector;rounded=0;orthogonalLoop=1;jettySize=auto;html=1;strokeColor=default;align=center;verticalAlign=middle;fontFamily=Helvetica;fontSize=11;fontColor=default;labelBackgroundColor=default;endArrow=none;endFill=0;" parent="1" source="YIxFrYYdF3xTyE7wbsBq-1" target="YIxFrYYdF3xTyE7wbsBq-3" edge="1">
          <mxGeometry relative="1" as="geometry">
            <Array as="points">
              <mxPoint x="371" y="640" />
              <mxPoint x="406" y="640" />
            </Array>
          </mxGeometry>
        </mxCell>
        <mxCell id="YIxFrYYdF3xTyE7wbsBq-9" style="edgeStyle=orthogonalEdgeStyle;shape=connector;rounded=0;orthogonalLoop=1;jettySize=auto;html=1;strokeColor=default;align=center;verticalAlign=middle;fontFamily=Helvetica;fontSize=11;fontColor=default;labelBackgroundColor=default;endArrow=none;endFill=0;" parent="1" source="YIxFrYYdF3xTyE7wbsBq-1" target="ZmDCDeHjcGQ9Co0sPI0v-1" edge="1">
          <mxGeometry relative="1" as="geometry">
            <Array as="points">
              <mxPoint x="210" y="600" />
            </Array>
          </mxGeometry>
        </mxCell>
        <mxCell id="YIxFrYYdF3xTyE7wbsBq-10" style="edgeStyle=orthogonalEdgeStyle;shape=connector;rounded=0;orthogonalLoop=1;jettySize=auto;html=1;strokeColor=default;align=center;verticalAlign=middle;fontFamily=Helvetica;fontSize=11;fontColor=default;labelBackgroundColor=default;endArrow=none;endFill=0;" parent="1" source="YIxFrYYdF3xTyE7wbsBq-1" target="4nFmlGrkYZHXywnM78xl-1" edge="1">
          <mxGeometry relative="1" as="geometry">
            <mxPoint x="610" y="750" as="targetPoint" />
          </mxGeometry>
        </mxCell>
        <mxCell id="YIxFrYYdF3xTyE7wbsBq-1" value="WISHLIST_&lt;div&gt;CONTAINS&lt;/div&gt;" style="shape=rhombus;perimeter=rhombusPerimeter;whiteSpace=wrap;html=1;align=center;fontFamily=Helvetica;fontSize=11;fontColor=default;labelBackgroundColor=default;" parent="1" vertex="1">
          <mxGeometry x="311" y="570" width="120" height="60" as="geometry" />
        </mxCell>
        <mxCell id="YIxFrYYdF3xTyE7wbsBq-8" style="edgeStyle=orthogonalEdgeStyle;shape=connector;rounded=0;orthogonalLoop=1;jettySize=auto;html=1;strokeColor=default;align=center;verticalAlign=middle;fontFamily=Helvetica;fontSize=11;fontColor=default;labelBackgroundColor=default;endArrow=none;endFill=0;" parent="1" source="YIxFrYYdF3xTyE7wbsBq-2" target="4nFmlGrkYZHXywnM78xl-1" edge="1">
          <mxGeometry relative="1" as="geometry">
            <Array as="points">
              <mxPoint x="630" y="810" />
            </Array>
            <mxPoint x="630" y="790" as="targetPoint" />
          </mxGeometry>
        </mxCell>
        <mxCell id="YIxFrYYdF3xTyE7wbsBq-2" value="Total_amount" style="ellipse;whiteSpace=wrap;html=1;align=center;fontFamily=Helvetica;fontSize=11;fontColor=default;labelBackgroundColor=default;" parent="1" vertex="1">
          <mxGeometry x="664" y="790" width="76" height="40" as="geometry" />
        </mxCell>
        <mxCell id="YIxFrYYdF3xTyE7wbsBq-3" value="Amount" style="ellipse;whiteSpace=wrap;html=1;align=center;fontFamily=Helvetica;fontSize=11;fontColor=default;labelBackgroundColor=default;" parent="1" vertex="1">
          <mxGeometry x="378" y="650" width="56" height="40" as="geometry" />
        </mxCell>
        <mxCell id="FU6ACgp1wZsf35zTRWbn-2" style="shape=link;html=1;rounded=0;" parent="1" source="4nFmlGrkYZHXywnM78xl-1" target="4nFmlGrkYZHXywnM78xl-3" edge="1">
          <mxGeometry relative="1" as="geometry">
            <mxPoint x="610" y="790" as="sourcePoint" />
            <mxPoint x="610" y="860" as="targetPoint" />
          </mxGeometry>
        </mxCell>
        <mxCell id="YIxFrYYdF3xTyE7wbsBq-5" value="Quantity" style="ellipse;whiteSpace=wrap;html=1;align=center;fontFamily=Helvetica;fontSize=11;fontColor=default;labelBackgroundColor=default;" parent="1" vertex="1">
          <mxGeometry x="311" y="650" width="50" height="40" as="geometry" />
        </mxCell>
        <mxCell id="FU6ACgp1wZsf35zTRWbn-3" style="edgeStyle=orthogonalEdgeStyle;shape=connector;rounded=0;orthogonalLoop=1;jettySize=auto;html=1;strokeColor=default;align=center;verticalAlign=middle;fontFamily=Helvetica;fontSize=11;fontColor=default;labelBackgroundColor=default;endArrow=none;endFill=0;" parent="1" source="4nFmlGrkYZHXywnM78xl-3" edge="1">
          <mxGeometry relative="1" as="geometry">
            <mxPoint x="610" y="920" as="sourcePoint" />
            <mxPoint x="789.97" y="958" as="targetPoint" />
            <Array as="points">
              <mxPoint x="610" y="958" />
            </Array>
          </mxGeometry>
        </mxCell>
        <mxCell id="5WrMhxhGJvjxmUNtbUgs-2" style="edgeStyle=orthogonalEdgeStyle;shape=connector;rounded=0;orthogonalLoop=1;jettySize=auto;html=1;strokeColor=default;align=center;verticalAlign=middle;fontFamily=Helvetica;fontSize=11;fontColor=default;labelBackgroundColor=default;endArrow=none;endFill=0;" parent="1" source="5WrMhxhGJvjxmUNtbUgs-1" target="pkc1mqCRBSREItcjR_jf-3" edge="1">
          <mxGeometry relative="1" as="geometry">
            <Array as="points">
              <mxPoint x="806" y="300" />
              <mxPoint x="806" y="300" />
            </Array>
          </mxGeometry>
        </mxCell>
        <mxCell id="5WrMhxhGJvjxmUNtbUgs-1" value="PHYSICAL_&lt;br&gt;CHECKOUT" style="shape=rhombus;perimeter=rhombusPerimeter;whiteSpace=wrap;html=1;align=center;fontFamily=Helvetica;fontSize=11;fontColor=default;labelBackgroundColor=default;strokeWidth=1;arcSize=12;" parent="1" vertex="1">
          <mxGeometry x="741" y="385" width="130" height="60" as="geometry" />
        </mxCell>
        <mxCell id="2nZdZvAj6UIS7JHNRAhe-7" style="shape=link;html=1;rounded=0;" parent="1" source="2nZdZvAj6UIS7JHNRAhe-1" target="5WrMhxhGJvjxmUNtbUgs-1" edge="1">
          <mxGeometry relative="1" as="geometry" />
        </mxCell>
        <mxCell id="2nZdZvAj6UIS7JHNRAhe-1" value="ORDER" style="whiteSpace=wrap;html=1;align=center;fontFamily=Helvetica;fontSize=11;fontColor=default;labelBackgroundColor=default;strokeWidth=1;arcSize=12;" parent="1" vertex="1">
          <mxGeometry x="756" y="520" width="100" height="40" as="geometry" />
        </mxCell>
        <mxCell id="Nc1-V4M7lQyPv4FLzhsM-1" style="edgeStyle=orthogonalEdgeStyle;shape=connector;rounded=0;orthogonalLoop=1;jettySize=auto;html=1;strokeColor=default;align=center;verticalAlign=middle;fontFamily=Helvetica;fontSize=11;fontColor=default;labelBackgroundColor=default;endArrow=none;endFill=0;" parent="1" source="2nZdZvAj6UIS7JHNRAhe-2" target="2nZdZvAj6UIS7JHNRAhe-1" edge="1">
          <mxGeometry relative="1" as="geometry">
            <Array as="points">
              <mxPoint x="786" y="565" />
            </Array>
          </mxGeometry>
        </mxCell>
        <mxCell id="2nZdZvAj6UIS7JHNRAhe-2" value="&lt;u&gt;Order_id&lt;/u&gt;" style="ellipse;whiteSpace=wrap;html=1;align=center;fontFamily=Helvetica;fontSize=11;fontColor=default;labelBackgroundColor=default;" parent="1" vertex="1">
          <mxGeometry x="670" y="545" width="76" height="40" as="geometry" />
        </mxCell>
        <mxCell id="Nc1-V4M7lQyPv4FLzhsM-7" style="edgeStyle=orthogonalEdgeStyle;shape=connector;rounded=0;orthogonalLoop=1;jettySize=auto;html=1;strokeColor=default;align=center;verticalAlign=middle;fontFamily=Helvetica;fontSize=11;fontColor=default;labelBackgroundColor=default;endArrow=none;endFill=0;" parent="1" source="2nZdZvAj6UIS7JHNRAhe-3" target="2nZdZvAj6UIS7JHNRAhe-1" edge="1">
          <mxGeometry relative="1" as="geometry">
            <Array as="points">
              <mxPoint x="786" y="750" />
            </Array>
          </mxGeometry>
        </mxCell>
        <mxCell id="2nZdZvAj6UIS7JHNRAhe-3" value="Total_amount" style="ellipse;whiteSpace=wrap;html=1;align=center;fontFamily=Helvetica;fontSize=11;fontColor=default;labelBackgroundColor=default;" parent="1" vertex="1">
          <mxGeometry x="668" y="730" width="78" height="40" as="geometry" />
        </mxCell>
        <mxCell id="Nc1-V4M7lQyPv4FLzhsM-4" style="edgeStyle=orthogonalEdgeStyle;shape=connector;rounded=0;orthogonalLoop=1;jettySize=auto;html=1;strokeColor=default;align=center;verticalAlign=middle;fontFamily=Helvetica;fontSize=11;fontColor=default;labelBackgroundColor=default;endArrow=none;endFill=0;" parent="1" source="2nZdZvAj6UIS7JHNRAhe-4" target="2nZdZvAj6UIS7JHNRAhe-1" edge="1">
          <mxGeometry relative="1" as="geometry">
            <Array as="points">
              <mxPoint x="786" y="656" />
            </Array>
          </mxGeometry>
        </mxCell>
        <mxCell id="2nZdZvAj6UIS7JHNRAhe-4" value="Notes" style="ellipse;whiteSpace=wrap;html=1;align=center;fontFamily=Helvetica;fontSize=11;fontColor=default;labelBackgroundColor=default;" parent="1" vertex="1">
          <mxGeometry x="687" y="636" width="59" height="40" as="geometry" />
        </mxCell>
        <mxCell id="Nc1-V4M7lQyPv4FLzhsM-6" style="edgeStyle=orthogonalEdgeStyle;shape=connector;rounded=0;orthogonalLoop=1;jettySize=auto;html=1;strokeColor=default;align=center;verticalAlign=middle;fontFamily=Helvetica;fontSize=11;fontColor=default;labelBackgroundColor=default;endArrow=none;endFill=0;" parent="1" source="2nZdZvAj6UIS7JHNRAhe-5" target="2nZdZvAj6UIS7JHNRAhe-1" edge="1">
          <mxGeometry relative="1" as="geometry">
            <Array as="points">
              <mxPoint x="786" y="704" />
            </Array>
          </mxGeometry>
        </mxCell>
        <mxCell id="2nZdZvAj6UIS7JHNRAhe-5" value="Payment_method" style="ellipse;whiteSpace=wrap;html=1;align=center;fontFamily=Helvetica;fontSize=11;fontColor=default;labelBackgroundColor=default;" parent="1" vertex="1">
          <mxGeometry x="646" y="684.5" width="100" height="40" as="geometry" />
        </mxCell>
        <mxCell id="Nc1-V4M7lQyPv4FLzhsM-2" style="edgeStyle=orthogonalEdgeStyle;shape=connector;rounded=0;orthogonalLoop=1;jettySize=auto;html=1;strokeColor=default;align=center;verticalAlign=middle;fontFamily=Helvetica;fontSize=11;fontColor=default;labelBackgroundColor=default;endArrow=none;endFill=0;" parent="1" source="2nZdZvAj6UIS7JHNRAhe-6" target="2nZdZvAj6UIS7JHNRAhe-1" edge="1">
          <mxGeometry relative="1" as="geometry">
            <Array as="points">
              <mxPoint x="786" y="610" />
            </Array>
          </mxGeometry>
        </mxCell>
        <mxCell id="2nZdZvAj6UIS7JHNRAhe-6" value="Is_online" style="ellipse;whiteSpace=wrap;html=1;align=center;fontFamily=Helvetica;fontSize=11;fontColor=default;labelBackgroundColor=default;" parent="1" vertex="1">
          <mxGeometry x="674" y="590" width="72" height="40" as="geometry" />
        </mxCell>
        <mxCell id="aj07FJAU_nmilhhpm8DO-1" value="" style="group" parent="1" connectable="0" vertex="1">
          <mxGeometry x="520" y="40" width="322" height="125" as="geometry" />
        </mxCell>
        <mxCell id="pkc1mqCRBSREItcjR_jf-33" value="Address" style="ellipse;whiteSpace=wrap;html=1;align=center;" parent="aj07FJAU_nmilhhpm8DO-1" vertex="1">
          <mxGeometry x="159" y="85" width="56" height="40" as="geometry" />
        </mxCell>
        <mxCell id="emeEYZtQ20ZXC9A35gYS-23" style="edgeStyle=orthogonalEdgeStyle;shape=connector;rounded=0;orthogonalLoop=1;jettySize=auto;html=1;strokeColor=default;align=center;verticalAlign=middle;fontFamily=Helvetica;fontSize=11;fontColor=default;labelBackgroundColor=default;endArrow=none;endFill=0;" parent="aj07FJAU_nmilhhpm8DO-1" source="pkc1mqCRBSREItcjR_jf-34" target="pkc1mqCRBSREItcjR_jf-33" edge="1">
          <mxGeometry relative="1" as="geometry">
            <mxPoint x="100" y="60" as="targetPoint" />
            <Array as="points">
              <mxPoint x="97" y="60" />
              <mxPoint x="187" y="60" />
            </Array>
          </mxGeometry>
        </mxCell>
        <mxCell id="pkc1mqCRBSREItcjR_jf-34" value="State" style="ellipse;whiteSpace=wrap;html=1;align=center;" parent="aj07FJAU_nmilhhpm8DO-1" vertex="1">
          <mxGeometry x="67" width="60" height="40" as="geometry" />
        </mxCell>
        <mxCell id="emeEYZtQ20ZXC9A35gYS-22" style="edgeStyle=orthogonalEdgeStyle;shape=connector;rounded=0;orthogonalLoop=1;jettySize=auto;html=1;strokeColor=default;align=center;verticalAlign=middle;fontFamily=Helvetica;fontSize=11;fontColor=default;labelBackgroundColor=default;endArrow=none;endFill=0;" parent="aj07FJAU_nmilhhpm8DO-1" source="pkc1mqCRBSREItcjR_jf-35" target="pkc1mqCRBSREItcjR_jf-33" edge="1">
          <mxGeometry relative="1" as="geometry">
            <Array as="points">
              <mxPoint x="30" y="60" />
              <mxPoint x="187" y="60" />
            </Array>
          </mxGeometry>
        </mxCell>
        <mxCell id="pkc1mqCRBSREItcjR_jf-35" value="Country" style="ellipse;whiteSpace=wrap;html=1;align=center;" parent="aj07FJAU_nmilhhpm8DO-1" vertex="1">
          <mxGeometry width="60" height="40" as="geometry" />
        </mxCell>
        <mxCell id="emeEYZtQ20ZXC9A35gYS-24" style="edgeStyle=orthogonalEdgeStyle;shape=connector;rounded=0;orthogonalLoop=1;jettySize=auto;html=1;strokeColor=default;align=center;verticalAlign=middle;fontFamily=Helvetica;fontSize=11;fontColor=default;labelBackgroundColor=default;endArrow=none;endFill=0;" parent="aj07FJAU_nmilhhpm8DO-1" source="pkc1mqCRBSREItcjR_jf-36" target="pkc1mqCRBSREItcjR_jf-33" edge="1">
          <mxGeometry relative="1" as="geometry">
            <mxPoint x="160" y="60" as="targetPoint" />
            <Array as="points">
              <mxPoint x="162" y="60" />
              <mxPoint x="187" y="60" />
            </Array>
          </mxGeometry>
        </mxCell>
        <mxCell id="pkc1mqCRBSREItcjR_jf-36" value="Street" style="ellipse;whiteSpace=wrap;html=1;align=center;" parent="aj07FJAU_nmilhhpm8DO-1" vertex="1">
          <mxGeometry x="132" width="60" height="40" as="geometry" />
        </mxCell>
        <mxCell id="emeEYZtQ20ZXC9A35gYS-27" style="edgeStyle=orthogonalEdgeStyle;shape=connector;rounded=0;orthogonalLoop=1;jettySize=auto;html=1;strokeColor=default;align=center;verticalAlign=middle;fontFamily=Helvetica;fontSize=11;fontColor=default;labelBackgroundColor=default;endArrow=none;endFill=0;" parent="aj07FJAU_nmilhhpm8DO-1" source="pkc1mqCRBSREItcjR_jf-38" target="pkc1mqCRBSREItcjR_jf-33" edge="1">
          <mxGeometry relative="1" as="geometry">
            <mxPoint x="220" y="60" as="targetPoint" />
            <Array as="points">
              <mxPoint x="290" y="60" />
              <mxPoint x="187" y="60" />
            </Array>
          </mxGeometry>
        </mxCell>
        <mxCell id="pkc1mqCRBSREItcjR_jf-38" value="Apartment" style="ellipse;whiteSpace=wrap;html=1;align=center;" parent="aj07FJAU_nmilhhpm8DO-1" vertex="1">
          <mxGeometry x="262" width="60" height="40" as="geometry" />
        </mxCell>
        <mxCell id="emeEYZtQ20ZXC9A35gYS-25" style="edgeStyle=orthogonalEdgeStyle;shape=connector;rounded=0;orthogonalLoop=1;jettySize=auto;html=1;strokeColor=default;align=center;verticalAlign=middle;fontFamily=Helvetica;fontSize=11;fontColor=default;labelBackgroundColor=default;endArrow=none;endFill=0;" parent="aj07FJAU_nmilhhpm8DO-1" source="pkc1mqCRBSREItcjR_jf-39" target="pkc1mqCRBSREItcjR_jf-33" edge="1">
          <mxGeometry relative="1" as="geometry">
            <mxPoint x="170" y="60" as="targetPoint" />
            <Array as="points">
              <mxPoint x="227" y="60" />
              <mxPoint x="187" y="60" />
            </Array>
          </mxGeometry>
        </mxCell>
        <mxCell id="pkc1mqCRBSREItcjR_jf-39" value="Building" style="ellipse;whiteSpace=wrap;html=1;align=center;" parent="aj07FJAU_nmilhhpm8DO-1" vertex="1">
          <mxGeometry x="197" width="60" height="40" as="geometry" />
        </mxCell>
        <mxCell id="xMQSApsqwdfqm7ZjKPY_-2" style="edgeStyle=orthogonalEdgeStyle;shape=connector;rounded=0;orthogonalLoop=1;jettySize=auto;html=1;strokeColor=default;align=center;verticalAlign=middle;fontFamily=Helvetica;fontSize=11;fontColor=default;labelBackgroundColor=default;endArrow=none;endFill=0;" parent="1" source="IOHml6rNT0M3Bnd0TqCk-1" target="ZmDCDeHjcGQ9Co0sPI0v-1" edge="1">
          <mxGeometry relative="1" as="geometry" />
        </mxCell>
        <mxCell id="xMQSApsqwdfqm7ZjKPY_-3" style="shape=link;html=1;rounded=0;" parent="1" source="IOHml6rNT0M3Bnd0TqCk-1" target="2nZdZvAj6UIS7JHNRAhe-1" edge="1">
          <mxGeometry relative="1" as="geometry" />
        </mxCell>
        <mxCell id="xMQSApsqwdfqm7ZjKPY_-4" style="edgeStyle=orthogonalEdgeStyle;shape=connector;rounded=0;orthogonalLoop=1;jettySize=auto;html=1;strokeColor=default;align=center;verticalAlign=middle;fontFamily=Helvetica;fontSize=11;fontColor=default;labelBackgroundColor=default;endArrow=none;endFill=0;" parent="1" source="IOHml6rNT0M3Bnd0TqCk-1" target="IOHml6rNT0M3Bnd0TqCk-2" edge="1">
          <mxGeometry relative="1" as="geometry">
            <Array as="points">
              <mxPoint x="470" y="550" />
              <mxPoint x="470" y="550" />
            </Array>
          </mxGeometry>
        </mxCell>
        <mxCell id="ubdKOEJkrUknDSJBa1ov-2" style="edgeStyle=orthogonalEdgeStyle;shape=connector;rounded=0;orthogonalLoop=1;jettySize=auto;html=1;strokeColor=default;align=center;verticalAlign=middle;fontFamily=Helvetica;fontSize=11;fontColor=default;labelBackgroundColor=default;endArrow=none;endFill=0;" parent="1" source="IOHml6rNT0M3Bnd0TqCk-1" target="ubdKOEJkrUknDSJBa1ov-1" edge="1">
          <mxGeometry relative="1" as="geometry">
            <Array as="points">
              <mxPoint x="430" y="560" />
              <mxPoint x="430" y="560" />
            </Array>
          </mxGeometry>
        </mxCell>
        <mxCell id="IOHml6rNT0M3Bnd0TqCk-1" value="PURCHASED" style="shape=rhombus;perimeter=rhombusPerimeter;whiteSpace=wrap;html=1;align=center;fontFamily=Helvetica;fontSize=11;fontColor=default;labelBackgroundColor=default;strokeWidth=1;arcSize=12;" parent="1" vertex="1">
          <mxGeometry x="428" y="510" width="96" height="60" as="geometry" />
        </mxCell>
        <mxCell id="ubdKOEJkrUknDSJBa1ov-1" value="Quantity" style="ellipse;whiteSpace=wrap;html=1;align=center;fontFamily=Helvetica;fontSize=11;fontColor=default;labelBackgroundColor=default;" parent="1" vertex="1">
          <mxGeometry x="369" y="545" width="59" height="30" as="geometry" />
        </mxCell>
        <mxCell id="IOHml6rNT0M3Bnd0TqCk-2" value="Amount" style="ellipse;whiteSpace=wrap;html=1;align=center;fontFamily=Helvetica;fontSize=11;fontColor=default;labelBackgroundColor=default;" parent="1" vertex="1">
          <mxGeometry x="528" y="545" width="59" height="30" as="geometry" />
        </mxCell>
        <mxCell id="bH_ilqtFa3n89gZaBH1b-3" style="shape=link;html=1;rounded=0;" parent="1" source="bH_ilqtFa3n89gZaBH1b-1" target="2nZdZvAj6UIS7JHNRAhe-1" edge="1">
          <mxGeometry relative="1" as="geometry" />
        </mxCell>
        <mxCell id="aS97i3CBMKSQ5NDVYQfa-1" style="edgeStyle=orthogonalEdgeStyle;rounded=0;orthogonalLoop=1;jettySize=auto;html=1;endArrow=none;endFill=0;" parent="1" source="aj07FJAU_nmilhhpm8DO-3" target="K5wjV0CV18HsrDoXG3gK-1" edge="1">
          <mxGeometry relative="1" as="geometry">
            <Array as="points">
              <mxPoint x="510" y="305" />
              <mxPoint x="510" y="355" />
            </Array>
          </mxGeometry>
        </mxCell>
        <mxCell id="bH_ilqtFa3n89gZaBH1b-1" value="MADE_BY" style="shape=rhombus;perimeter=rhombusPerimeter;whiteSpace=wrap;html=1;align=center;fontFamily=Helvetica;fontSize=11;fontColor=default;labelBackgroundColor=default;strokeWidth=1;arcSize=12;" parent="1" vertex="1">
          <mxGeometry x="746" y="820" width="120" height="60" as="geometry" />
        </mxCell>
        <mxCell id="aj07FJAU_nmilhhpm8DO-2" value="" style="group" parent="1" connectable="0" vertex="1">
          <mxGeometry x="250" y="200" width="322" height="125" as="geometry" />
        </mxCell>
        <mxCell id="aj07FJAU_nmilhhpm8DO-3" value="Address" style="ellipse;whiteSpace=wrap;html=1;align=center;" parent="aj07FJAU_nmilhhpm8DO-2" vertex="1">
          <mxGeometry x="159" y="85" width="56" height="40" as="geometry" />
        </mxCell>
        <mxCell id="aj07FJAU_nmilhhpm8DO-4" style="edgeStyle=orthogonalEdgeStyle;shape=connector;rounded=0;orthogonalLoop=1;jettySize=auto;html=1;strokeColor=default;align=center;verticalAlign=middle;fontFamily=Helvetica;fontSize=11;fontColor=default;labelBackgroundColor=default;endArrow=none;endFill=0;" parent="aj07FJAU_nmilhhpm8DO-2" source="aj07FJAU_nmilhhpm8DO-5" target="aj07FJAU_nmilhhpm8DO-3" edge="1">
          <mxGeometry relative="1" as="geometry">
            <mxPoint x="100" y="60" as="targetPoint" />
            <Array as="points">
              <mxPoint x="97" y="60" />
              <mxPoint x="187" y="60" />
            </Array>
          </mxGeometry>
        </mxCell>
        <mxCell id="aj07FJAU_nmilhhpm8DO-5" value="State" style="ellipse;whiteSpace=wrap;html=1;align=center;" parent="aj07FJAU_nmilhhpm8DO-2" vertex="1">
          <mxGeometry x="67" width="60" height="40" as="geometry" />
        </mxCell>
        <mxCell id="aj07FJAU_nmilhhpm8DO-6" style="edgeStyle=orthogonalEdgeStyle;shape=connector;rounded=0;orthogonalLoop=1;jettySize=auto;html=1;strokeColor=default;align=center;verticalAlign=middle;fontFamily=Helvetica;fontSize=11;fontColor=default;labelBackgroundColor=default;endArrow=none;endFill=0;" parent="aj07FJAU_nmilhhpm8DO-2" source="aj07FJAU_nmilhhpm8DO-7" target="aj07FJAU_nmilhhpm8DO-3" edge="1">
          <mxGeometry relative="1" as="geometry">
            <Array as="points">
              <mxPoint x="30" y="60" />
              <mxPoint x="187" y="60" />
            </Array>
          </mxGeometry>
        </mxCell>
        <mxCell id="aj07FJAU_nmilhhpm8DO-7" value="Country" style="ellipse;whiteSpace=wrap;html=1;align=center;" parent="aj07FJAU_nmilhhpm8DO-2" vertex="1">
          <mxGeometry width="60" height="40" as="geometry" />
        </mxCell>
        <mxCell id="aj07FJAU_nmilhhpm8DO-8" style="edgeStyle=orthogonalEdgeStyle;shape=connector;rounded=0;orthogonalLoop=1;jettySize=auto;html=1;strokeColor=default;align=center;verticalAlign=middle;fontFamily=Helvetica;fontSize=11;fontColor=default;labelBackgroundColor=default;endArrow=none;endFill=0;" parent="aj07FJAU_nmilhhpm8DO-2" source="aj07FJAU_nmilhhpm8DO-9" target="aj07FJAU_nmilhhpm8DO-3" edge="1">
          <mxGeometry relative="1" as="geometry">
            <mxPoint x="160" y="60" as="targetPoint" />
            <Array as="points">
              <mxPoint x="162" y="60" />
              <mxPoint x="187" y="60" />
            </Array>
          </mxGeometry>
        </mxCell>
        <mxCell id="aj07FJAU_nmilhhpm8DO-9" value="Street" style="ellipse;whiteSpace=wrap;html=1;align=center;" parent="aj07FJAU_nmilhhpm8DO-2" vertex="1">
          <mxGeometry x="132" width="60" height="40" as="geometry" />
        </mxCell>
        <mxCell id="aj07FJAU_nmilhhpm8DO-10" style="edgeStyle=orthogonalEdgeStyle;shape=connector;rounded=0;orthogonalLoop=1;jettySize=auto;html=1;strokeColor=default;align=center;verticalAlign=middle;fontFamily=Helvetica;fontSize=11;fontColor=default;labelBackgroundColor=default;endArrow=none;endFill=0;" parent="aj07FJAU_nmilhhpm8DO-2" source="aj07FJAU_nmilhhpm8DO-11" target="aj07FJAU_nmilhhpm8DO-3" edge="1">
          <mxGeometry relative="1" as="geometry">
            <mxPoint x="220" y="60" as="targetPoint" />
            <Array as="points">
              <mxPoint x="290" y="60" />
              <mxPoint x="187" y="60" />
            </Array>
          </mxGeometry>
        </mxCell>
        <mxCell id="aj07FJAU_nmilhhpm8DO-11" value="Apartment" style="ellipse;whiteSpace=wrap;html=1;align=center;" parent="aj07FJAU_nmilhhpm8DO-2" vertex="1">
          <mxGeometry x="262" width="60" height="40" as="geometry" />
        </mxCell>
        <mxCell id="aj07FJAU_nmilhhpm8DO-12" style="edgeStyle=orthogonalEdgeStyle;shape=connector;rounded=0;orthogonalLoop=1;jettySize=auto;html=1;strokeColor=default;align=center;verticalAlign=middle;fontFamily=Helvetica;fontSize=11;fontColor=default;labelBackgroundColor=default;endArrow=none;endFill=0;" parent="aj07FJAU_nmilhhpm8DO-2" source="aj07FJAU_nmilhhpm8DO-13" target="aj07FJAU_nmilhhpm8DO-3" edge="1">
          <mxGeometry relative="1" as="geometry">
            <mxPoint x="170" y="60" as="targetPoint" />
            <Array as="points">
              <mxPoint x="227" y="60" />
              <mxPoint x="187" y="60" />
            </Array>
          </mxGeometry>
        </mxCell>
        <mxCell id="aj07FJAU_nmilhhpm8DO-13" value="Building" style="ellipse;whiteSpace=wrap;html=1;align=center;" parent="aj07FJAU_nmilhhpm8DO-2" vertex="1">
          <mxGeometry x="197" width="60" height="40" as="geometry" />
        </mxCell>
        <mxCell id="bH_ilqtFa3n89gZaBH1b-5" style="edgeStyle=orthogonalEdgeStyle;shape=connector;rounded=0;orthogonalLoop=1;jettySize=auto;html=1;strokeColor=default;align=center;verticalAlign=middle;fontFamily=Helvetica;fontSize=11;fontColor=default;labelBackgroundColor=default;endArrow=none;endFill=0;" parent="1" source="bH_ilqtFa3n89gZaBH1b-2" target="bH_ilqtFa3n89gZaBH1b-1" edge="1">
          <mxGeometry relative="1" as="geometry">
            <Array as="points">
              <mxPoint x="734" y="850" />
            </Array>
          </mxGeometry>
        </mxCell>
        <mxCell id="bH_ilqtFa3n89gZaBH1b-2" value="Date" style="ellipse;whiteSpace=wrap;html=1;align=center;fontFamily=Helvetica;fontSize=11;fontColor=default;labelBackgroundColor=default;" parent="1" vertex="1">
          <mxGeometry x="706" y="870" width="60" height="40" as="geometry" />
        </mxCell>
        <mxCell id="14cNfg3VQZaRNtmZoKIu-2" style="shape=connector;rounded=0;orthogonalLoop=1;jettySize=auto;html=1;strokeColor=default;align=center;verticalAlign=middle;fontFamily=Helvetica;fontSize=11;fontColor=default;labelBackgroundColor=default;endArrow=none;endFill=0;exitX=1;exitY=0.5;exitDx=0;exitDy=0;entryX=0.25;entryY=1;entryDx=0;entryDy=0;" parent="1" source="14cNfg3VQZaRNtmZoKIu-1" target="pkc1mqCRBSREItcjR_jf-3" edge="1">
          <mxGeometry relative="1" as="geometry">
            <mxPoint x="780" y="200" as="targetPoint" />
          </mxGeometry>
        </mxCell>
        <mxCell id="14cNfg3VQZaRNtmZoKIu-3" style="shape=link;html=1;rounded=0;exitX=0.5;exitY=0;exitDx=0;exitDy=0;" parent="1" source="14cNfg3VQZaRNtmZoKIu-1" target="pkc1mqCRBSREItcjR_jf-3" edge="1">
          <mxGeometry relative="1" as="geometry">
            <Array as="points" />
          </mxGeometry>
        </mxCell>
        <mxCell id="14cNfg3VQZaRNtmZoKIu-1" value="SUPERVISION" style="shape=rhombus;perimeter=rhombusPerimeter;whiteSpace=wrap;html=1;align=center;fontFamily=Helvetica;fontSize=11;fontColor=default;labelBackgroundColor=default;strokeWidth=1;arcSize=12;" parent="1" vertex="1">
          <mxGeometry x="629" y="275" width="104" height="60" as="geometry" />
        </mxCell>
        <mxCell id="Q-xhBeYg3p_3KqYc7A77-5" style="edgeStyle=orthogonalEdgeStyle;shape=connector;rounded=0;orthogonalLoop=1;jettySize=auto;html=1;strokeColor=default;align=center;verticalAlign=middle;fontFamily=Helvetica;fontSize=11;fontColor=default;labelBackgroundColor=default;endArrow=none;endFill=0;" parent="1" source="Q-xhBeYg3p_3KqYc7A77-1" target="Q-xhBeYg3p_3KqYc7A77-3" edge="1">
          <mxGeometry relative="1" as="geometry">
            <Array as="points">
              <mxPoint x="1450" y="70" />
              <mxPoint x="1320" y="70" />
            </Array>
          </mxGeometry>
        </mxCell>
        <mxCell id="Q-xhBeYg3p_3KqYc7A77-6" style="edgeStyle=orthogonalEdgeStyle;shape=connector;rounded=0;orthogonalLoop=1;jettySize=auto;html=1;strokeColor=default;align=center;verticalAlign=middle;fontFamily=Helvetica;fontSize=11;fontColor=default;labelBackgroundColor=default;endArrow=none;endFill=0;" parent="1" source="Q-xhBeYg3p_3KqYc7A77-1" target="Q-xhBeYg3p_3KqYc7A77-4" edge="1">
          <mxGeometry relative="1" as="geometry" />
        </mxCell>
        <mxCell id="Q-xhBeYg3p_3KqYc7A77-7" style="edgeStyle=orthogonalEdgeStyle;shape=connector;rounded=0;orthogonalLoop=1;jettySize=auto;html=1;strokeColor=default;align=center;verticalAlign=middle;fontFamily=Helvetica;fontSize=11;fontColor=default;labelBackgroundColor=default;endArrow=none;endFill=0;" parent="1" source="Q-xhBeYg3p_3KqYc7A77-1" target="Q-xhBeYg3p_3KqYc7A77-2" edge="1">
          <mxGeometry relative="1" as="geometry">
            <Array as="points">
              <mxPoint x="1450" y="70" />
              <mxPoint x="1580" y="70" />
            </Array>
          </mxGeometry>
        </mxCell>
        <mxCell id="Q-xhBeYg3p_3KqYc7A77-1" value="DEPARTMENT" style="whiteSpace=wrap;html=1;align=center;fontFamily=Helvetica;fontSize=11;fontColor=default;labelBackgroundColor=default;strokeWidth=1;arcSize=12;" parent="1" vertex="1">
          <mxGeometry x="1400" y="90" width="100" height="40" as="geometry" />
        </mxCell>
        <mxCell id="Q-xhBeYg3p_3KqYc7A77-2" value="Name" style="ellipse;whiteSpace=wrap;html=1;align=center;fontStyle=4;fontFamily=Helvetica;fontSize=11;fontColor=default;labelBackgroundColor=default;" parent="1" vertex="1">
          <mxGeometry x="1530" y="10" width="100" height="40" as="geometry" />
        </mxCell>
        <mxCell id="Q-xhBeYg3p_3KqYc7A77-3" value="Locations" style="ellipse;shape=doubleEllipse;margin=3;whiteSpace=wrap;html=1;align=center;fontFamily=Helvetica;fontSize=11;fontColor=default;labelBackgroundColor=default;" parent="1" vertex="1">
          <mxGeometry x="1270" y="10" width="100" height="40" as="geometry" />
        </mxCell>
        <mxCell id="Q-xhBeYg3p_3KqYc7A77-4" value="Number_of_employees" style="ellipse;whiteSpace=wrap;html=1;align=center;dashed=1;fontFamily=Helvetica;fontSize=11;fontColor=default;labelBackgroundColor=default;" parent="1" vertex="1">
          <mxGeometry x="1380" y="10" width="140" height="40" as="geometry" />
        </mxCell>
        <mxCell id="bJcnSogge6j0vKfcOUlQ-7" style="shape=link;html=1;rounded=0;" parent="1" source="bJcnSogge6j0vKfcOUlQ-1" target="Q-xhBeYg3p_3KqYc7A77-1" edge="1">
          <mxGeometry relative="1" as="geometry" />
        </mxCell>
        <mxCell id="bJcnSogge6j0vKfcOUlQ-8" style="shape=link;html=1;rounded=0;entryX=1;entryY=0.75;entryDx=0;entryDy=0;" parent="1" source="bJcnSogge6j0vKfcOUlQ-1" target="pkc1mqCRBSREItcjR_jf-3" edge="1">
          <mxGeometry relative="1" as="geometry">
            <Array as="points">
              <mxPoint x="1305" y="195" />
            </Array>
            <mxPoint x="850" y="190" as="targetPoint" />
          </mxGeometry>
        </mxCell>
        <mxCell id="bJcnSogge6j0vKfcOUlQ-1" value="WORKS_FOR" style="shape=rhombus;perimeter=rhombusPerimeter;whiteSpace=wrap;html=1;align=center;fontFamily=Helvetica;fontSize=11;fontColor=default;labelBackgroundColor=default;strokeWidth=1;arcSize=12;" parent="1" vertex="1">
          <mxGeometry x="1250" y="80" width="110" height="60" as="geometry" />
        </mxCell>
        <mxCell id="bJcnSogge6j0vKfcOUlQ-13" style="edgeStyle=orthogonalEdgeStyle;shape=connector;rounded=0;orthogonalLoop=1;jettySize=auto;html=1;strokeColor=default;align=center;verticalAlign=middle;fontFamily=Helvetica;fontSize=11;fontColor=default;labelBackgroundColor=default;endArrow=none;endFill=0;" parent="1" source="bJcnSogge6j0vKfcOUlQ-2" target="pkc1mqCRBSREItcjR_jf-3" edge="1">
          <mxGeometry relative="1" as="geometry">
            <Array as="points">
              <mxPoint x="1588" y="200" />
            </Array>
          </mxGeometry>
        </mxCell>
        <mxCell id="QB9u-moqE6SYAiKvPIDH-13" style="shape=link;html=1;rounded=0;" parent="1" source="bJcnSogge6j0vKfcOUlQ-2" target="Q-xhBeYg3p_3KqYc7A77-1" edge="1">
          <mxGeometry relative="1" as="geometry">
            <Array as="points">
              <mxPoint x="1588" y="110" />
            </Array>
          </mxGeometry>
        </mxCell>
        <mxCell id="bJcnSogge6j0vKfcOUlQ-2" value="MANAGES_&lt;div&gt;DEPARTMENT&lt;/div&gt;" style="shape=rhombus;perimeter=rhombusPerimeter;whiteSpace=wrap;html=1;align=center;fontFamily=Helvetica;fontSize=11;fontColor=default;labelBackgroundColor=default;strokeWidth=1;arcSize=12;" parent="1" vertex="1">
          <mxGeometry x="1525" y="130" width="125" height="60" as="geometry" />
        </mxCell>
        <mxCell id="bJcnSogge6j0vKfcOUlQ-15" style="edgeStyle=orthogonalEdgeStyle;shape=connector;rounded=0;orthogonalLoop=1;jettySize=auto;html=1;strokeColor=default;align=center;verticalAlign=middle;fontFamily=Helvetica;fontSize=11;fontColor=default;labelBackgroundColor=default;endArrow=none;endFill=0;" parent="1" source="bJcnSogge6j0vKfcOUlQ-3" target="bJcnSogge6j0vKfcOUlQ-2" edge="1">
          <mxGeometry relative="1" as="geometry" />
        </mxCell>
        <mxCell id="bJcnSogge6j0vKfcOUlQ-3" value="Start_date" style="ellipse;whiteSpace=wrap;html=1;align=center;fontFamily=Helvetica;fontSize=11;fontColor=default;labelBackgroundColor=default;" parent="1" vertex="1">
          <mxGeometry x="1431" y="140" width="76" height="40" as="geometry" />
        </mxCell>
        <mxCell id="bJcnSogge6j0vKfcOUlQ-6" style="edgeStyle=orthogonalEdgeStyle;shape=connector;rounded=0;orthogonalLoop=1;jettySize=auto;html=1;strokeColor=default;align=center;verticalAlign=middle;fontFamily=Helvetica;fontSize=11;fontColor=default;labelBackgroundColor=default;endArrow=none;endFill=0;" parent="1" source="bJcnSogge6j0vKfcOUlQ-4" target="bJcnSogge6j0vKfcOUlQ-1" edge="1">
          <mxGeometry relative="1" as="geometry">
            <Array as="points">
              <mxPoint x="1320" y="160" />
            </Array>
          </mxGeometry>
        </mxCell>
        <mxCell id="bJcnSogge6j0vKfcOUlQ-4" value="Start_date" style="ellipse;whiteSpace=wrap;html=1;align=center;fontFamily=Helvetica;fontSize=11;fontColor=default;labelBackgroundColor=default;" parent="1" vertex="1">
          <mxGeometry x="1340" y="140" width="76" height="40" as="geometry" />
        </mxCell>
        <mxCell id="Mq0KKlB-KoZ-prjsS0n6-7" style="edgeStyle=orthogonalEdgeStyle;shape=connector;rounded=0;orthogonalLoop=1;jettySize=auto;html=1;strokeColor=default;align=center;verticalAlign=middle;fontFamily=Helvetica;fontSize=11;fontColor=default;labelBackgroundColor=default;endArrow=none;endFill=0;" parent="1" source="Mq0KKlB-KoZ-prjsS0n6-1" target="Mq0KKlB-KoZ-prjsS0n6-2" edge="1">
          <mxGeometry relative="1" as="geometry">
            <Array as="points">
              <mxPoint x="1540" y="238" />
              <mxPoint x="1540" y="228" />
            </Array>
          </mxGeometry>
        </mxCell>
        <mxCell id="Mq0KKlB-KoZ-prjsS0n6-1" value="DEPENDENT" style="shape=ext;margin=3;double=1;whiteSpace=wrap;html=1;align=center;fontFamily=Helvetica;fontSize=11;fontColor=default;labelBackgroundColor=default;strokeWidth=1;arcSize=12;" parent="1" vertex="1">
          <mxGeometry x="1425" y="218" width="100" height="40" as="geometry" />
        </mxCell>
        <mxCell id="Mq0KKlB-KoZ-prjsS0n6-2" value="&lt;span style=&quot;border-bottom: 1px dotted&quot;&gt;Name&lt;/span&gt;" style="ellipse;whiteSpace=wrap;html=1;align=center;fontFamily=Helvetica;fontSize=11;fontColor=default;labelBackgroundColor=default;" parent="1" vertex="1">
          <mxGeometry x="1560" y="208" width="56" height="40" as="geometry" />
        </mxCell>
        <mxCell id="Mq0KKlB-KoZ-prjsS0n6-6" style="edgeStyle=orthogonalEdgeStyle;shape=connector;rounded=0;orthogonalLoop=1;jettySize=auto;html=1;strokeColor=default;align=center;verticalAlign=middle;fontFamily=Helvetica;fontSize=11;fontColor=default;labelBackgroundColor=default;endArrow=none;endFill=0;" parent="1" source="Mq0KKlB-KoZ-prjsS0n6-3" target="Mq0KKlB-KoZ-prjsS0n6-1" edge="1">
          <mxGeometry relative="1" as="geometry">
            <Array as="points">
              <mxPoint x="1540" y="380" />
              <mxPoint x="1540" y="238" />
            </Array>
          </mxGeometry>
        </mxCell>
        <mxCell id="Mq0KKlB-KoZ-prjsS0n6-3" value="Relationship" style="ellipse;whiteSpace=wrap;html=1;align=center;fontFamily=Helvetica;fontSize=11;fontColor=default;labelBackgroundColor=default;" parent="1" vertex="1">
          <mxGeometry x="1560" y="360" width="80" height="40" as="geometry" />
        </mxCell>
        <mxCell id="Mq0KKlB-KoZ-prjsS0n6-9" style="edgeStyle=orthogonalEdgeStyle;shape=connector;rounded=0;orthogonalLoop=1;jettySize=auto;html=1;strokeColor=default;align=center;verticalAlign=middle;fontFamily=Helvetica;fontSize=11;fontColor=default;labelBackgroundColor=default;endArrow=none;endFill=0;" parent="1" source="Mq0KKlB-KoZ-prjsS0n6-4" target="Mq0KKlB-KoZ-prjsS0n6-1" edge="1">
          <mxGeometry relative="1" as="geometry">
            <Array as="points">
              <mxPoint x="1540" y="328" />
              <mxPoint x="1540" y="238" />
            </Array>
          </mxGeometry>
        </mxCell>
        <mxCell id="Mq0KKlB-KoZ-prjsS0n6-4" value="Date_of_birth" style="ellipse;whiteSpace=wrap;html=1;align=center;fontFamily=Helvetica;fontSize=11;fontColor=default;labelBackgroundColor=default;" parent="1" vertex="1">
          <mxGeometry x="1560" y="308" width="84" height="40" as="geometry" />
        </mxCell>
        <mxCell id="Mq0KKlB-KoZ-prjsS0n6-8" style="edgeStyle=orthogonalEdgeStyle;shape=connector;rounded=0;orthogonalLoop=1;jettySize=auto;html=1;strokeColor=default;align=center;verticalAlign=middle;fontFamily=Helvetica;fontSize=11;fontColor=default;labelBackgroundColor=default;endArrow=none;endFill=0;" parent="1" source="Mq0KKlB-KoZ-prjsS0n6-5" target="Mq0KKlB-KoZ-prjsS0n6-1" edge="1">
          <mxGeometry relative="1" as="geometry">
            <Array as="points">
              <mxPoint x="1540" y="278" />
              <mxPoint x="1540" y="238" />
            </Array>
          </mxGeometry>
        </mxCell>
        <mxCell id="Mq0KKlB-KoZ-prjsS0n6-5" value="Gender" style="ellipse;whiteSpace=wrap;html=1;align=center;fontFamily=Helvetica;fontSize=11;fontColor=default;labelBackgroundColor=default;" parent="1" vertex="1">
          <mxGeometry x="1560" y="258" width="64" height="40" as="geometry" />
        </mxCell>
        <mxCell id="j3LzFQOeYakwH0pVyQle-2" style="shape=link;html=1;rounded=0;" parent="1" source="j3LzFQOeYakwH0pVyQle-1" target="Mq0KKlB-KoZ-prjsS0n6-1" edge="1">
          <mxGeometry relative="1" as="geometry" />
        </mxCell>
        <mxCell id="j3LzFQOeYakwH0pVyQle-3" style="edgeStyle=orthogonalEdgeStyle;shape=connector;rounded=0;orthogonalLoop=1;jettySize=auto;html=1;strokeColor=default;align=center;verticalAlign=middle;fontFamily=Helvetica;fontSize=11;fontColor=default;labelBackgroundColor=default;endArrow=none;endFill=0;" parent="1" source="j3LzFQOeYakwH0pVyQle-1" target="pkc1mqCRBSREItcjR_jf-3" edge="1">
          <mxGeometry relative="1" as="geometry">
            <Array as="points">
              <mxPoint x="840" y="238" />
            </Array>
          </mxGeometry>
        </mxCell>
        <mxCell id="j3LzFQOeYakwH0pVyQle-1" value="&lt;font style=&quot;font-size: 9px;&quot;&gt;DEPENDENTS_OF&lt;/font&gt;" style="shape=rhombus;double=1;perimeter=rhombusPerimeter;whiteSpace=wrap;html=1;align=center;fontFamily=Helvetica;fontSize=11;fontColor=default;labelBackgroundColor=default;strokeWidth=1;arcSize=12;" parent="1" vertex="1">
          <mxGeometry x="1160" y="208" width="120" height="60" as="geometry" />
        </mxCell>
        <mxCell id="OFRirLKgMupBhmxAa1T2-1" value="DRIVER" style="whiteSpace=wrap;html=1;align=center;fontFamily=Helvetica;fontSize=11;fontColor=default;labelBackgroundColor=default;strokeWidth=1;arcSize=12;" parent="1" vertex="1">
          <mxGeometry x="945" y="430.5" width="100" height="40" as="geometry" />
        </mxCell>
        <mxCell id="biLP_vZPX5Ag_T6T7afI-3" style="edgeStyle=orthogonalEdgeStyle;shape=connector;rounded=0;orthogonalLoop=1;jettySize=auto;html=1;strokeColor=default;align=center;verticalAlign=middle;fontFamily=Helvetica;fontSize=11;fontColor=default;labelBackgroundColor=default;endArrow=none;endFill=0;" parent="1" source="OFRirLKgMupBhmxAa1T2-2" target="OFRirLKgMupBhmxAa1T2-1" edge="1">
          <mxGeometry relative="1" as="geometry">
            <Array as="points">
              <mxPoint x="1075" y="498" />
              <mxPoint x="1075" y="451" />
            </Array>
          </mxGeometry>
        </mxCell>
        <mxCell id="OFRirLKgMupBhmxAa1T2-2" value="License_expiry_date" style="ellipse;whiteSpace=wrap;html=1;align=center;strokeColor=default;verticalAlign=middle;fontFamily=Helvetica;fontSize=11;fontColor=default;labelBackgroundColor=default;fillColor=default;" parent="1" vertex="1">
          <mxGeometry x="1098" y="478" width="120" height="40" as="geometry" />
        </mxCell>
        <mxCell id="biLP_vZPX5Ag_T6T7afI-2" style="edgeStyle=orthogonalEdgeStyle;rounded=0;orthogonalLoop=1;jettySize=auto;html=1;endArrow=none;endFill=0;" parent="1" source="OFRirLKgMupBhmxAa1T2-3" target="OFRirLKgMupBhmxAa1T2-1" edge="1">
          <mxGeometry relative="1" as="geometry" />
        </mxCell>
        <mxCell id="OFRirLKgMupBhmxAa1T2-3" value="Driving_experience_years" style="ellipse;whiteSpace=wrap;html=1;align=center;strokeColor=default;verticalAlign=middle;fontFamily=Helvetica;fontSize=11;fontColor=default;labelBackgroundColor=default;fillColor=default;" parent="1" vertex="1">
          <mxGeometry x="1098" y="431" width="140" height="40" as="geometry" />
        </mxCell>
        <mxCell id="biLP_vZPX5Ag_T6T7afI-1" style="edgeStyle=orthogonalEdgeStyle;rounded=0;orthogonalLoop=1;jettySize=auto;html=1;endArrow=none;endFill=0;" parent="1" source="OFRirLKgMupBhmxAa1T2-4" target="OFRirLKgMupBhmxAa1T2-1" edge="1">
          <mxGeometry relative="1" as="geometry">
            <Array as="points">
              <mxPoint x="1075" y="405" />
              <mxPoint x="1075" y="451" />
            </Array>
          </mxGeometry>
        </mxCell>
        <mxCell id="OFRirLKgMupBhmxAa1T2-4" value="License_number" style="ellipse;whiteSpace=wrap;html=1;align=center;fontStyle=4;fontFamily=Helvetica;fontSize=11;fontColor=default;labelBackgroundColor=default;" parent="1" vertex="1">
          <mxGeometry x="1098" y="385" width="100" height="40" as="geometry" />
        </mxCell>
        <mxCell id="pg5LgSmZ2-9ZYtVD8WYx-2" style="edgeStyle=orthogonalEdgeStyle;shape=connector;rounded=0;orthogonalLoop=1;jettySize=auto;html=1;strokeColor=default;align=center;verticalAlign=middle;fontFamily=Helvetica;fontSize=11;fontColor=default;labelBackgroundColor=default;endArrow=none;endFill=0;" parent="1" source="pg5LgSmZ2-9ZYtVD8WYx-1" target="pkc1mqCRBSREItcjR_jf-3" edge="1">
          <mxGeometry relative="1" as="geometry">
            <Array as="points">
              <mxPoint x="820" y="355" />
            </Array>
          </mxGeometry>
        </mxCell>
        <mxCell id="pg5LgSmZ2-9ZYtVD8WYx-3" style="shape=link;html=1;rounded=0;strokeColor=default;align=center;verticalAlign=middle;fontFamily=Helvetica;fontSize=11;fontColor=default;labelBackgroundColor=default;edgeStyle=orthogonalEdgeStyle;endArrow=none;endFill=0;" parent="1" source="pg5LgSmZ2-9ZYtVD8WYx-1" target="OFRirLKgMupBhmxAa1T2-1" edge="1">
          <mxGeometry relative="1" as="geometry" />
        </mxCell>
        <mxCell id="pg5LgSmZ2-9ZYtVD8WYx-1" value="IS_DRIVER" style="shape=rhombus;perimeter=rhombusPerimeter;whiteSpace=wrap;html=1;align=center;fontFamily=Helvetica;fontSize=11;fontColor=default;labelBackgroundColor=default;strokeWidth=1;arcSize=12;" parent="1" vertex="1">
          <mxGeometry x="935" y="325" width="120" height="60" as="geometry" />
        </mxCell>
        <mxCell id="El1r8Ef_Lo8be1vATli_-2" style="edgeStyle=orthogonalEdgeStyle;shape=connector;rounded=0;orthogonalLoop=1;jettySize=auto;html=1;strokeColor=default;align=center;verticalAlign=middle;fontFamily=Helvetica;fontSize=11;fontColor=default;labelBackgroundColor=default;endArrow=none;endFill=0;" parent="1" source="El1r8Ef_Lo8be1vATli_-1" target="OFRirLKgMupBhmxAa1T2-1" edge="1">
          <mxGeometry relative="1" as="geometry" />
        </mxCell>
        <mxCell id="El1r8Ef_Lo8be1vATli_-3" style="html=1;rounded=0;strokeColor=default;align=center;verticalAlign=middle;fontFamily=Helvetica;fontSize=11;fontColor=default;labelBackgroundColor=default;edgeStyle=orthogonalEdgeStyle;endArrow=none;endFill=0;" parent="1" source="El1r8Ef_Lo8be1vATli_-1" target="2nZdZvAj6UIS7JHNRAhe-1" edge="1">
          <mxGeometry relative="1" as="geometry">
            <Array as="points">
              <mxPoint x="940" y="540" />
            </Array>
          </mxGeometry>
        </mxCell>
        <mxCell id="El1r8Ef_Lo8be1vATli_-1" value="DELIVERS" style="shape=rhombus;perimeter=rhombusPerimeter;whiteSpace=wrap;html=1;align=center;fontFamily=Helvetica;fontSize=11;fontColor=default;labelBackgroundColor=default;strokeWidth=1;arcSize=12;" parent="1" vertex="1">
          <mxGeometry x="946" y="510" width="97" height="60" as="geometry" />
        </mxCell>
        <mxCell id="36_IhezK0Ubu6t6SHMQt-15" style="edgeStyle=orthogonalEdgeStyle;shape=connector;rounded=0;orthogonalLoop=1;jettySize=auto;html=1;strokeColor=default;align=center;verticalAlign=middle;fontFamily=Helvetica;fontSize=11;fontColor=default;labelBackgroundColor=default;endArrow=none;endFill=0;" parent="1" source="36_IhezK0Ubu6t6SHMQt-1" target="El1r8Ef_Lo8be1vATli_-1" edge="1">
          <mxGeometry relative="1" as="geometry" />
        </mxCell>
        <mxCell id="36_IhezK0Ubu6t6SHMQt-1" value="Expected_time" style="ellipse;whiteSpace=wrap;html=1;align=center;fontFamily=Helvetica;fontSize=11;fontColor=default;labelBackgroundColor=default;" parent="1" vertex="1">
          <mxGeometry x="1065" y="520" width="100" height="40" as="geometry" />
        </mxCell>
        <mxCell id="36_IhezK0Ubu6t6SHMQt-16" style="edgeStyle=orthogonalEdgeStyle;shape=connector;rounded=0;orthogonalLoop=1;jettySize=auto;html=1;strokeColor=default;align=center;verticalAlign=middle;fontFamily=Helvetica;fontSize=11;fontColor=default;labelBackgroundColor=default;endArrow=none;endFill=0;" parent="1" source="36_IhezK0Ubu6t6SHMQt-2" target="El1r8Ef_Lo8be1vATli_-1" edge="1">
          <mxGeometry relative="1" as="geometry">
            <Array as="points">
              <mxPoint x="1055" y="590" />
              <mxPoint x="1055" y="540" />
            </Array>
          </mxGeometry>
        </mxCell>
        <mxCell id="36_IhezK0Ubu6t6SHMQt-2" value="Actual_time" style="ellipse;whiteSpace=wrap;html=1;align=center;fontFamily=Helvetica;fontSize=11;fontColor=default;labelBackgroundColor=default;" parent="1" vertex="1">
          <mxGeometry x="1080" y="570" width="70" height="40" as="geometry" />
        </mxCell>
        <mxCell id="36_IhezK0Ubu6t6SHMQt-17" style="edgeStyle=orthogonalEdgeStyle;shape=connector;rounded=0;orthogonalLoop=1;jettySize=auto;html=1;strokeColor=default;align=center;verticalAlign=middle;fontFamily=Helvetica;fontSize=11;fontColor=default;labelBackgroundColor=default;endArrow=none;endFill=0;" parent="1" source="36_IhezK0Ubu6t6SHMQt-4" target="El1r8Ef_Lo8be1vATli_-1" edge="1">
          <mxGeometry relative="1" as="geometry">
            <Array as="points">
              <mxPoint x="1055" y="645" />
              <mxPoint x="1055" y="540" />
            </Array>
          </mxGeometry>
        </mxCell>
        <mxCell id="QaToeLKL0FiOze8_qUDI-1" style="edgeStyle=orthogonalEdgeStyle;shape=connector;rounded=0;orthogonalLoop=1;jettySize=auto;html=1;strokeColor=default;align=center;verticalAlign=middle;fontFamily=Helvetica;fontSize=11;fontColor=default;labelBackgroundColor=default;endArrow=none;endFill=0;" parent="1" target="36_IhezK0Ubu6t6SHMQt-8" edge="1">
          <mxGeometry relative="1" as="geometry">
            <mxPoint x="1116" y="645" as="sourcePoint" />
            <mxPoint x="1180" y="575" as="targetPoint" />
            <Array as="points">
              <mxPoint x="1155" y="645" />
              <mxPoint x="1155" y="575" />
            </Array>
          </mxGeometry>
        </mxCell>
        <mxCell id="36_IhezK0Ubu6t6SHMQt-4" value="Address" style="ellipse;whiteSpace=wrap;html=1;align=center;" parent="1" vertex="1">
          <mxGeometry x="1065" y="625" width="56" height="40" as="geometry" />
        </mxCell>
        <mxCell id="36_IhezK0Ubu6t6SHMQt-5" style="edgeStyle=orthogonalEdgeStyle;shape=connector;rounded=0;orthogonalLoop=1;jettySize=auto;html=1;strokeColor=default;align=center;verticalAlign=middle;fontFamily=Helvetica;fontSize=11;fontColor=default;labelBackgroundColor=default;endArrow=none;endFill=0;" parent="1" source="36_IhezK0Ubu6t6SHMQt-6" target="36_IhezK0Ubu6t6SHMQt-4" edge="1">
          <mxGeometry relative="1" as="geometry">
            <mxPoint x="1121" y="645" as="targetPoint" />
            <Array as="points">
              <mxPoint x="1155" y="620" />
              <mxPoint x="1155" y="645" />
            </Array>
            <mxPoint x="1186.0001297580661" y="670.0588235294117" as="sourcePoint" />
          </mxGeometry>
        </mxCell>
        <mxCell id="36_IhezK0Ubu6t6SHMQt-9" style="edgeStyle=orthogonalEdgeStyle;shape=connector;rounded=0;orthogonalLoop=1;jettySize=auto;html=1;strokeColor=default;align=center;verticalAlign=middle;fontFamily=Helvetica;fontSize=11;fontColor=default;labelBackgroundColor=default;endArrow=none;endFill=0;" parent="1" source="36_IhezK0Ubu6t6SHMQt-10" target="36_IhezK0Ubu6t6SHMQt-4" edge="1">
          <mxGeometry relative="1" as="geometry">
            <mxPoint x="1284" y="747" as="targetPoint" />
            <Array as="points">
              <mxPoint x="1155" y="720" />
              <mxPoint x="1155" y="645" />
            </Array>
          </mxGeometry>
        </mxCell>
        <mxCell id="36_IhezK0Ubu6t6SHMQt-11" style="edgeStyle=orthogonalEdgeStyle;shape=connector;rounded=0;orthogonalLoop=1;jettySize=auto;html=1;strokeColor=default;align=center;verticalAlign=middle;fontFamily=Helvetica;fontSize=11;fontColor=default;labelBackgroundColor=default;endArrow=none;endFill=0;" parent="1" source="sYwS8xtRnNuUu3swwnNO-9" target="36_IhezK0Ubu6t6SHMQt-4" edge="1">
          <mxGeometry relative="1" as="geometry">
            <mxPoint x="1344" y="747" as="targetPoint" />
            <Array as="points">
              <mxPoint x="1155" y="820" />
              <mxPoint x="1155" y="645" />
            </Array>
            <mxPoint x="1160" y="820" as="sourcePoint" />
          </mxGeometry>
        </mxCell>
        <mxCell id="36_IhezK0Ubu6t6SHMQt-13" style="edgeStyle=orthogonalEdgeStyle;shape=connector;rounded=0;orthogonalLoop=1;jettySize=auto;html=1;strokeColor=default;align=center;verticalAlign=middle;fontFamily=Helvetica;fontSize=11;fontColor=default;labelBackgroundColor=default;endArrow=none;endFill=0;" parent="1" source="36_IhezK0Ubu6t6SHMQt-14" target="36_IhezK0Ubu6t6SHMQt-4" edge="1">
          <mxGeometry relative="1" as="geometry">
            <mxPoint x="1294" y="747" as="targetPoint" />
            <Array as="points">
              <mxPoint x="1155" y="770" />
              <mxPoint x="1155" y="645" />
            </Array>
          </mxGeometry>
        </mxCell>
        <mxCell id="36_IhezK0Ubu6t6SHMQt-8" value="Country" style="ellipse;whiteSpace=wrap;html=1;align=center;" parent="1" vertex="1">
          <mxGeometry x="1185" y="555" width="60" height="40" as="geometry" />
        </mxCell>
        <mxCell id="36_IhezK0Ubu6t6SHMQt-6" value="State" style="ellipse;whiteSpace=wrap;html=1;align=center;" parent="1" vertex="1">
          <mxGeometry x="1185" y="600" width="60" height="40" as="geometry" />
        </mxCell>
        <mxCell id="36_IhezK0Ubu6t6SHMQt-10" value="Street" style="ellipse;whiteSpace=wrap;html=1;align=center;" parent="1" vertex="1">
          <mxGeometry x="1185" y="700" width="60" height="40" as="geometry" />
        </mxCell>
        <mxCell id="36_IhezK0Ubu6t6SHMQt-14" value="Building" style="ellipse;whiteSpace=wrap;html=1;align=center;" parent="1" vertex="1">
          <mxGeometry x="1185" y="750" width="60" height="40" as="geometry" />
        </mxCell>
        <mxCell id="sYwS8xtRnNuUu3swwnNO-12" style="edgeStyle=orthogonalEdgeStyle;shape=connector;rounded=0;orthogonalLoop=1;jettySize=auto;html=1;strokeColor=default;align=center;verticalAlign=middle;fontFamily=Helvetica;fontSize=11;fontColor=default;labelBackgroundColor=default;endArrow=none;endFill=0;" parent="1" source="sYwS8xtRnNuUu3swwnNO-1" target="2nZdZvAj6UIS7JHNRAhe-1" edge="1">
          <mxGeometry relative="1" as="geometry">
            <Array as="points">
              <mxPoint x="1018" y="640" />
              <mxPoint x="840" y="640" />
            </Array>
          </mxGeometry>
        </mxCell>
        <mxCell id="sYwS8xtRnNuUu3swwnNO-1" value="REDEEM" style="shape=rhombus;perimeter=rhombusPerimeter;whiteSpace=wrap;html=1;align=center;fontFamily=Helvetica;fontSize=11;fontColor=default;labelBackgroundColor=default;" parent="1" vertex="1">
          <mxGeometry x="958" y="700" width="120" height="60" as="geometry" />
        </mxCell>
        <mxCell id="sYwS8xtRnNuUu3swwnNO-11" style="edgeStyle=orthogonalEdgeStyle;shape=connector;rounded=0;orthogonalLoop=1;jettySize=auto;html=1;strokeColor=default;align=center;verticalAlign=middle;fontFamily=Helvetica;fontSize=11;fontColor=default;labelBackgroundColor=default;endArrow=none;endFill=0;" parent="1" source="sYwS8xtRnNuUu3swwnNO-2" target="sYwS8xtRnNuUu3swwnNO-1" edge="1">
          <mxGeometry relative="1" as="geometry" />
        </mxCell>
        <mxCell id="sYwS8xtRnNuUu3swwnNO-2" value="Discount_amount" style="ellipse;whiteSpace=wrap;html=1;align=center;fontFamily=Helvetica;fontSize=11;fontColor=default;labelBackgroundColor=default;" parent="1" vertex="1">
          <mxGeometry x="811" y="680" width="100" height="40" as="geometry" />
        </mxCell>
        <mxCell id="sYwS8xtRnNuUu3swwnNO-10" style="edgeStyle=orthogonalEdgeStyle;shape=connector;rounded=0;orthogonalLoop=1;jettySize=auto;html=1;strokeColor=default;align=center;verticalAlign=middle;fontFamily=Helvetica;fontSize=11;fontColor=default;labelBackgroundColor=default;endArrow=none;endFill=0;" parent="1" source="sYwS8xtRnNuUu3swwnNO-4" target="sYwS8xtRnNuUu3swwnNO-1" edge="1">
          <mxGeometry relative="1" as="geometry" />
        </mxCell>
        <mxCell id="sYwS8xtRnNuUu3swwnNO-4" value="Redeem_date" style="ellipse;whiteSpace=wrap;html=1;align=center;fontFamily=Helvetica;fontSize=11;fontColor=default;labelBackgroundColor=default;" parent="1" vertex="1">
          <mxGeometry x="831" y="724.5" width="80" height="40" as="geometry" />
        </mxCell>
        <mxCell id="sYwS8xtRnNuUu3swwnNO-9" value="Apartment" style="ellipse;whiteSpace=wrap;html=1;align=center;fontFamily=Helvetica;fontSize=11;fontColor=default;labelBackgroundColor=default;" parent="1" vertex="1">
          <mxGeometry x="1180" y="800" width="70" height="40" as="geometry" />
        </mxCell>
        <mxCell id="y0NDkH0nqkX1V-c5WDlk-21" style="edgeStyle=orthogonalEdgeStyle;shape=connector;rounded=0;orthogonalLoop=1;jettySize=auto;html=1;strokeColor=default;align=center;verticalAlign=middle;fontFamily=Helvetica;fontSize=11;fontColor=default;labelBackgroundColor=default;endArrow=none;endFill=0;" parent="1" source="y0NDkH0nqkX1V-c5WDlk-11" target="sYwS8xtRnNuUu3swwnNO-1" edge="1">
          <mxGeometry relative="1" as="geometry" />
        </mxCell>
        <mxCell id="sOc-xiAebKFmPyX9oeVT-1" style="edgeStyle=orthogonalEdgeStyle;rounded=0;orthogonalLoop=1;jettySize=auto;html=1;endArrow=none;endFill=0;jumpStyle=arc;" parent="1" source="y0NDkH0nqkX1V-c5WDlk-11" target="y0NDkH0nqkX1V-c5WDlk-12" edge="1">
          <mxGeometry relative="1" as="geometry">
            <Array as="points">
              <mxPoint x="1018" y="880" />
              <mxPoint x="841" y="880" />
            </Array>
          </mxGeometry>
        </mxCell>
        <mxCell id="y0NDkH0nqkX1V-c5WDlk-11" value="COUPON" style="whiteSpace=wrap;html=1;align=center;fontFamily=Helvetica;fontSize=11;fontColor=default;labelBackgroundColor=default;" parent="1" vertex="1">
          <mxGeometry x="968" y="820" width="100" height="40" as="geometry" />
        </mxCell>
        <mxCell id="y0NDkH0nqkX1V-c5WDlk-12" value="Code" style="ellipse;whiteSpace=wrap;html=1;align=center;fontStyle=4;fontFamily=Helvetica;fontSize=11;fontColor=default;labelBackgroundColor=default;" parent="1" vertex="1">
          <mxGeometry x="816" y="910" width="50" height="40" as="geometry" />
        </mxCell>
        <mxCell id="sOc-xiAebKFmPyX9oeVT-7" style="edgeStyle=orthogonalEdgeStyle;shape=connector;rounded=0;jumpStyle=arc;orthogonalLoop=1;jettySize=auto;html=1;strokeColor=default;align=center;verticalAlign=middle;fontFamily=Helvetica;fontSize=11;fontColor=default;labelBackgroundColor=default;endArrow=none;endFill=0;" parent="1" source="y0NDkH0nqkX1V-c5WDlk-13" target="y0NDkH0nqkX1V-c5WDlk-11" edge="1">
          <mxGeometry relative="1" as="geometry">
            <Array as="points">
              <mxPoint x="1475" y="880" />
              <mxPoint x="1018" y="880" />
            </Array>
          </mxGeometry>
        </mxCell>
        <mxCell id="y0NDkH0nqkX1V-c5WDlk-13" value="Description" style="ellipse;whiteSpace=wrap;html=1;align=center;fontFamily=Helvetica;fontSize=11;fontColor=default;labelBackgroundColor=default;" parent="1" vertex="1">
          <mxGeometry x="1438" y="910" width="74" height="40" as="geometry" />
        </mxCell>
        <mxCell id="sOc-xiAebKFmPyX9oeVT-2" style="edgeStyle=orthogonalEdgeStyle;shape=connector;rounded=0;jumpStyle=arc;orthogonalLoop=1;jettySize=auto;html=1;strokeColor=default;align=center;verticalAlign=middle;fontFamily=Helvetica;fontSize=11;fontColor=default;labelBackgroundColor=default;endArrow=none;endFill=0;" parent="1" source="y0NDkH0nqkX1V-c5WDlk-14" target="y0NDkH0nqkX1V-c5WDlk-11" edge="1">
          <mxGeometry relative="1" as="geometry">
            <Array as="points">
              <mxPoint x="920" y="880" />
              <mxPoint x="1018" y="880" />
            </Array>
          </mxGeometry>
        </mxCell>
        <mxCell id="y0NDkH0nqkX1V-c5WDlk-14" value="Discount_percent" style="ellipse;whiteSpace=wrap;html=1;align=center;fontFamily=Helvetica;fontSize=11;fontColor=default;labelBackgroundColor=default;" parent="1" vertex="1">
          <mxGeometry x="870" y="910" width="100" height="40" as="geometry" />
        </mxCell>
        <mxCell id="-1frqCq3irJBhhuBrsAU-5" style="edgeStyle=orthogonalEdgeStyle;shape=connector;rounded=0;orthogonalLoop=1;jettySize=auto;html=1;strokeColor=default;align=center;verticalAlign=middle;fontFamily=Helvetica;fontSize=11;fontColor=default;labelBackgroundColor=default;endArrow=none;endFill=0;" parent="1" source="y0NDkH0nqkX1V-c5WDlk-15" target="-1frqCq3irJBhhuBrsAU-2" edge="1">
          <mxGeometry relative="1" as="geometry" />
        </mxCell>
        <mxCell id="y0NDkH0nqkX1V-c5WDlk-15" value="Valid_to" style="ellipse;whiteSpace=wrap;html=1;align=center;fontFamily=Helvetica;fontSize=11;fontColor=default;labelBackgroundColor=default;" parent="1" vertex="1">
          <mxGeometry x="1515" y="980" width="60" height="40" as="geometry" />
        </mxCell>
        <mxCell id="-1frqCq3irJBhhuBrsAU-8" style="edgeStyle=orthogonalEdgeStyle;shape=connector;rounded=0;orthogonalLoop=1;jettySize=auto;html=1;strokeColor=default;align=center;verticalAlign=middle;fontFamily=Helvetica;fontSize=11;fontColor=default;labelBackgroundColor=default;endArrow=none;endFill=0;" parent="1" source="y0NDkH0nqkX1V-c5WDlk-16" target="-1frqCq3irJBhhuBrsAU-2" edge="1">
          <mxGeometry relative="1" as="geometry">
            <Array as="points">
              <mxPoint x="1453" y="970" />
              <mxPoint x="1545" y="970" />
            </Array>
          </mxGeometry>
        </mxCell>
        <mxCell id="y0NDkH0nqkX1V-c5WDlk-16" value="Valid_from" style="ellipse;whiteSpace=wrap;html=1;align=center;fontFamily=Helvetica;fontSize=11;fontColor=default;labelBackgroundColor=default;" parent="1" vertex="1">
          <mxGeometry x="1416" y="980" width="74" height="40" as="geometry" />
        </mxCell>
        <mxCell id="sOc-xiAebKFmPyX9oeVT-3" style="edgeStyle=orthogonalEdgeStyle;shape=connector;rounded=0;jumpStyle=arc;orthogonalLoop=1;jettySize=auto;html=1;strokeColor=default;align=center;verticalAlign=middle;fontFamily=Helvetica;fontSize=11;fontColor=default;labelBackgroundColor=default;endArrow=none;endFill=0;" parent="1" source="y0NDkH0nqkX1V-c5WDlk-17" target="y0NDkH0nqkX1V-c5WDlk-11" edge="1">
          <mxGeometry relative="1" as="geometry" />
        </mxCell>
        <mxCell id="y0NDkH0nqkX1V-c5WDlk-17" value="Times_used" style="ellipse;whiteSpace=wrap;html=1;align=center;fontFamily=Helvetica;fontSize=11;fontColor=default;labelBackgroundColor=default;" parent="1" vertex="1">
          <mxGeometry x="985" y="910" width="66" height="40" as="geometry" />
        </mxCell>
        <mxCell id="sOc-xiAebKFmPyX9oeVT-6" style="edgeStyle=orthogonalEdgeStyle;shape=connector;rounded=0;jumpStyle=arc;orthogonalLoop=1;jettySize=auto;html=1;strokeColor=default;align=center;verticalAlign=middle;fontFamily=Helvetica;fontSize=11;fontColor=default;labelBackgroundColor=default;endArrow=none;endFill=0;" parent="1" source="y0NDkH0nqkX1V-c5WDlk-18" target="y0NDkH0nqkX1V-c5WDlk-11" edge="1">
          <mxGeometry relative="1" as="geometry">
            <Array as="points">
              <mxPoint x="1391" y="880" />
              <mxPoint x="1018" y="880" />
            </Array>
          </mxGeometry>
        </mxCell>
        <mxCell id="y0NDkH0nqkX1V-c5WDlk-18" value="Usage_limit" style="ellipse;whiteSpace=wrap;html=1;align=center;fontFamily=Helvetica;fontSize=11;fontColor=default;labelBackgroundColor=default;" parent="1" vertex="1">
          <mxGeometry x="1351" y="910" width="80" height="40" as="geometry" />
        </mxCell>
        <mxCell id="sOc-xiAebKFmPyX9oeVT-5" style="edgeStyle=orthogonalEdgeStyle;shape=connector;rounded=0;jumpStyle=arc;orthogonalLoop=1;jettySize=auto;html=1;strokeColor=default;align=center;verticalAlign=middle;fontFamily=Helvetica;fontSize=11;fontColor=default;labelBackgroundColor=default;endArrow=none;endFill=0;" parent="1" source="y0NDkH0nqkX1V-c5WDlk-19" target="y0NDkH0nqkX1V-c5WDlk-11" edge="1">
          <mxGeometry relative="1" as="geometry">
            <Array as="points">
              <mxPoint x="1273" y="880" />
              <mxPoint x="1018" y="880" />
            </Array>
          </mxGeometry>
        </mxCell>
        <mxCell id="y0NDkH0nqkX1V-c5WDlk-19" value="Maximum_order_amount" style="ellipse;whiteSpace=wrap;html=1;align=center;fontFamily=Helvetica;fontSize=11;fontColor=default;labelBackgroundColor=default;" parent="1" vertex="1">
          <mxGeometry x="1206" y="910" width="134" height="40" as="geometry" />
        </mxCell>
        <mxCell id="sOc-xiAebKFmPyX9oeVT-4" style="edgeStyle=orthogonalEdgeStyle;shape=connector;rounded=0;jumpStyle=arc;orthogonalLoop=1;jettySize=auto;html=1;strokeColor=default;align=center;verticalAlign=middle;fontFamily=Helvetica;fontSize=11;fontColor=default;labelBackgroundColor=default;endArrow=none;endFill=0;" parent="1" source="y0NDkH0nqkX1V-c5WDlk-20" target="y0NDkH0nqkX1V-c5WDlk-11" edge="1">
          <mxGeometry relative="1" as="geometry">
            <Array as="points">
              <mxPoint x="1131" y="880" />
              <mxPoint x="1018" y="880" />
            </Array>
          </mxGeometry>
        </mxCell>
        <mxCell id="y0NDkH0nqkX1V-c5WDlk-20" value="Minimum_order_amount" style="ellipse;whiteSpace=wrap;html=1;align=center;fontFamily=Helvetica;fontSize=11;fontColor=default;labelBackgroundColor=default;" parent="1" vertex="1">
          <mxGeometry x="1064" y="910" width="134" height="40" as="geometry" />
        </mxCell>
        <mxCell id="sOc-xiAebKFmPyX9oeVT-8" style="edgeStyle=orthogonalEdgeStyle;shape=connector;rounded=0;jumpStyle=arc;orthogonalLoop=1;jettySize=auto;html=1;strokeColor=default;align=center;verticalAlign=middle;fontFamily=Helvetica;fontSize=11;fontColor=default;labelBackgroundColor=default;endArrow=none;endFill=0;" parent="1" source="-1frqCq3irJBhhuBrsAU-2" target="y0NDkH0nqkX1V-c5WDlk-11" edge="1">
          <mxGeometry relative="1" as="geometry">
            <Array as="points">
              <mxPoint x="1545" y="880" />
              <mxPoint x="1018" y="880" />
            </Array>
          </mxGeometry>
        </mxCell>
        <mxCell id="-1frqCq3irJBhhuBrsAU-2" value="Valid" style="ellipse;whiteSpace=wrap;html=1;align=center;fontFamily=Helvetica;fontSize=11;fontColor=default;labelBackgroundColor=default;" parent="1" vertex="1">
          <mxGeometry x="1520" y="910" width="50" height="40" as="geometry" />
        </mxCell>
        <mxCell id="NM3xXaYG5myijUvPxj4w-9" style="edgeStyle=orthogonalEdgeStyle;shape=connector;rounded=0;orthogonalLoop=1;jettySize=auto;html=1;strokeColor=default;align=center;verticalAlign=middle;fontFamily=Helvetica;fontSize=11;fontColor=default;labelBackgroundColor=default;endArrow=none;endFill=0;" parent="1" source="NM3xXaYG5myijUvPxj4w-1" edge="1">
          <mxGeometry relative="1" as="geometry">
            <Array as="points">
              <mxPoint x="1391" y="1110" />
              <mxPoint x="1469" y="1110" />
            </Array>
            <mxPoint x="1469" y="1089.9999999999998" as="targetPoint" />
          </mxGeometry>
        </mxCell>
        <mxCell id="NM3xXaYG5myijUvPxj4w-1" value="Description" style="ellipse;whiteSpace=wrap;html=1;align=center;fontFamily=Helvetica;fontSize=11;fontColor=default;labelBackgroundColor=default;" parent="1" vertex="1">
          <mxGeometry x="1351" y="1120" width="80" height="40" as="geometry" />
        </mxCell>
        <mxCell id="NM3xXaYG5myijUvPxj4w-2" value="Subject" style="ellipse;whiteSpace=wrap;html=1;align=center;fontFamily=Helvetica;fontSize=11;fontColor=default;labelBackgroundColor=default;" parent="1" vertex="1">
          <mxGeometry x="1440" y="1120" width="60" height="40" as="geometry" />
        </mxCell>
        <mxCell id="NM3xXaYG5myijUvPxj4w-10" style="edgeStyle=orthogonalEdgeStyle;shape=connector;rounded=0;orthogonalLoop=1;jettySize=auto;html=1;strokeColor=default;align=center;verticalAlign=middle;fontFamily=Helvetica;fontSize=11;fontColor=default;labelBackgroundColor=default;endArrow=none;endFill=0;" parent="1" source="NM3xXaYG5myijUvPxj4w-3" edge="1">
          <mxGeometry relative="1" as="geometry">
            <Array as="points">
              <mxPoint x="1537" y="1110" />
              <mxPoint x="1469" y="1110" />
            </Array>
            <mxPoint x="1469" y="1089.9999999999998" as="targetPoint" />
          </mxGeometry>
        </mxCell>
        <mxCell id="NM3xXaYG5myijUvPxj4w-3" value="Status" style="ellipse;whiteSpace=wrap;html=1;align=center;fontFamily=Helvetica;fontSize=11;fontColor=default;labelBackgroundColor=default;" parent="1" vertex="1">
          <mxGeometry x="1507" y="1120" width="60" height="40" as="geometry" />
        </mxCell>
        <mxCell id="NM3xXaYG5myijUvPxj4w-11" style="edgeStyle=orthogonalEdgeStyle;shape=connector;rounded=0;orthogonalLoop=1;jettySize=auto;html=1;strokeColor=default;align=center;verticalAlign=middle;fontFamily=Helvetica;fontSize=11;fontColor=default;labelBackgroundColor=default;endArrow=none;endFill=0;" parent="1" source="NM3xXaYG5myijUvPxj4w-4" edge="1">
          <mxGeometry relative="1" as="geometry">
            <Array as="points">
              <mxPoint x="1605" y="1110" />
              <mxPoint x="1469" y="1110" />
            </Array>
            <mxPoint x="1469" y="1089.9999999999998" as="targetPoint" />
          </mxGeometry>
        </mxCell>
        <mxCell id="NM3xXaYG5myijUvPxj4w-4" value="Priority" style="ellipse;whiteSpace=wrap;html=1;align=center;fontFamily=Helvetica;fontSize=11;fontColor=default;labelBackgroundColor=default;" parent="1" vertex="1">
          <mxGeometry x="1575" y="1120" width="60" height="40" as="geometry" />
        </mxCell>
        <mxCell id="NM3xXaYG5myijUvPxj4w-8" style="edgeStyle=orthogonalEdgeStyle;shape=connector;rounded=0;orthogonalLoop=1;jettySize=auto;html=1;strokeColor=default;align=center;verticalAlign=middle;fontFamily=Helvetica;fontSize=11;fontColor=default;labelBackgroundColor=default;endArrow=none;endFill=0;" parent="1" source="NM3xXaYG5myijUvPxj4w-5" edge="1">
          <mxGeometry relative="1" as="geometry">
            <Array as="points">
              <mxPoint x="1290" y="1110" />
              <mxPoint x="1469" y="1110" />
            </Array>
            <mxPoint x="1469" y="1089.9999999999998" as="targetPoint" />
          </mxGeometry>
        </mxCell>
        <mxCell id="NM3xXaYG5myijUvPxj4w-5" value="&lt;u&gt;Ticket_ID&lt;/u&gt;" style="ellipse;whiteSpace=wrap;html=1;align=center;fontFamily=Helvetica;fontSize=11;fontColor=default;labelBackgroundColor=default;" parent="1" vertex="1">
          <mxGeometry x="1240" y="1120" width="100" height="40" as="geometry" />
        </mxCell>
        <mxCell id="NM3xXaYG5myijUvPxj4w-7" value="" style="edgeStyle=orthogonalEdgeStyle;shape=connector;rounded=0;orthogonalLoop=1;jettySize=auto;html=1;strokeColor=default;align=center;verticalAlign=middle;fontFamily=Helvetica;fontSize=11;fontColor=default;labelBackgroundColor=default;endArrow=none;endFill=0;" parent="1" source="4nFmlGrkYZHXywnM78xl-4" target="NM3xXaYG5myijUvPxj4w-2" edge="1">
          <mxGeometry relative="1" as="geometry">
            <mxPoint x="1469" y="1089.9999999999998" as="sourcePoint" />
          </mxGeometry>
        </mxCell>
        <mxCell id="y7W1qro-DsKtenfwa3Ui-1" value="Request_date" style="ellipse;whiteSpace=wrap;html=1;align=center;fontFamily=Helvetica;fontSize=11;fontColor=default;labelBackgroundColor=default;" parent="1" vertex="1">
          <mxGeometry x="1277" y="992" width="74" height="40" as="geometry" />
        </mxCell>
        <mxCell id="y7W1qro-DsKtenfwa3Ui-3" style="shape=link;html=1;rounded=0;strokeColor=default;align=center;verticalAlign=middle;fontFamily=Helvetica;fontSize=11;fontColor=default;labelBackgroundColor=default;edgeStyle=orthogonalEdgeStyle;endArrow=none;endFill=0;" parent="1" source="4nFmlGrkYZHXywnM78xl-5" target="4nFmlGrkYZHXywnM78xl-4" edge="1">
          <mxGeometry relative="1" as="geometry">
            <mxPoint x="1275" y="1070" as="sourcePoint" />
            <mxPoint x="1409" y="1069.9999999999998" as="targetPoint" />
          </mxGeometry>
        </mxCell>
        <mxCell id="y7W1qro-DsKtenfwa3Ui-4" style="edgeStyle=orthogonalEdgeStyle;shape=connector;rounded=0;orthogonalLoop=1;jettySize=auto;html=1;strokeColor=default;align=center;verticalAlign=middle;fontFamily=Helvetica;fontSize=11;fontColor=default;labelBackgroundColor=default;endArrow=none;endFill=0;" parent="1" source="4nFmlGrkYZHXywnM78xl-5" target="y7W1qro-DsKtenfwa3Ui-1" edge="1">
          <mxGeometry relative="1" as="geometry">
            <Array as="points">
              <mxPoint x="1250" y="1012" />
            </Array>
            <mxPoint x="1249.9999999999998" y="1057.4999999999998" as="sourcePoint" />
          </mxGeometry>
        </mxCell>
        <mxCell id="y7W1qro-DsKtenfwa3Ui-5" style="edgeStyle=orthogonalEdgeStyle;shape=connector;rounded=0;orthogonalLoop=1;jettySize=auto;html=1;strokeColor=default;align=center;verticalAlign=middle;fontFamily=Helvetica;fontSize=11;fontColor=default;labelBackgroundColor=default;endArrow=none;endFill=0;" parent="1" source="4nFmlGrkYZHXywnM78xl-5" target="h9873lf0CLFDN7wGxpoM-1" edge="1">
          <mxGeometry relative="1" as="geometry">
            <Array as="points">
              <mxPoint x="1215" y="978" />
            </Array>
            <mxPoint x="1214.9999999999998" y="1040.0000000000002" as="sourcePoint" />
          </mxGeometry>
        </mxCell>
        <mxCell id="QumuV-RjmhkPTeUnMs_l-3" style="edgeStyle=orthogonalEdgeStyle;shape=connector;rounded=0;orthogonalLoop=1;jettySize=auto;html=1;strokeColor=default;align=center;verticalAlign=middle;fontFamily=Helvetica;fontSize=11;fontColor=default;labelBackgroundColor=default;endArrow=none;endFill=0;" parent="1" source="QumuV-RjmhkPTeUnMs_l-1" target="QumuV-RjmhkPTeUnMs_l-2" edge="1">
          <mxGeometry relative="1" as="geometry" />
        </mxCell>
        <mxCell id="QumuV-RjmhkPTeUnMs_l-4" style="shape=link;html=1;rounded=0;strokeColor=default;align=center;verticalAlign=middle;fontFamily=Helvetica;fontSize=11;fontColor=default;labelBackgroundColor=default;edgeStyle=orthogonalEdgeStyle;endArrow=none;endFill=0;" parent="1" source="QumuV-RjmhkPTeUnMs_l-1" target="4nFmlGrkYZHXywnM78xl-4" edge="1">
          <mxGeometry relative="1" as="geometry">
            <Array as="points">
              <mxPoint x="1391" y="823" />
              <mxPoint x="1610" y="823" />
              <mxPoint x="1610" y="1070" />
            </Array>
            <mxPoint x="1529" y="1070.0000000000002" as="targetPoint" />
          </mxGeometry>
        </mxCell>
        <mxCell id="QumuV-RjmhkPTeUnMs_l-5" style="edgeStyle=orthogonalEdgeStyle;shape=connector;rounded=0;orthogonalLoop=1;jettySize=auto;html=1;strokeColor=default;align=center;verticalAlign=middle;fontFamily=Helvetica;fontSize=11;fontColor=default;labelBackgroundColor=default;endArrow=none;endFill=0;" parent="1" source="QumuV-RjmhkPTeUnMs_l-1" target="pkc1mqCRBSREItcjR_jf-3" edge="1">
          <mxGeometry relative="1" as="geometry">
            <Array as="points">
              <mxPoint x="1391" y="290" />
              <mxPoint x="830" y="290" />
            </Array>
          </mxGeometry>
        </mxCell>
        <mxCell id="QumuV-RjmhkPTeUnMs_l-1" value="ASSIGNED_TO" style="shape=rhombus;perimeter=rhombusPerimeter;whiteSpace=wrap;html=1;align=center;fontFamily=Helvetica;fontSize=11;fontColor=default;labelBackgroundColor=default;" parent="1" vertex="1">
          <mxGeometry x="1331" y="535" width="120" height="60" as="geometry" />
        </mxCell>
        <mxCell id="QumuV-RjmhkPTeUnMs_l-2" value="Assign_date" style="ellipse;whiteSpace=wrap;html=1;align=center;fontFamily=Helvetica;fontSize=11;fontColor=default;labelBackgroundColor=default;" parent="1" vertex="1">
          <mxGeometry x="1480" y="545" width="80" height="40" as="geometry" />
        </mxCell>
        <mxCell id="FYXEFxaOS_NWAqLluULk-7" value="1" style="text;html=1;align=center;verticalAlign=middle;resizable=0;points=[];autosize=1;strokeColor=none;fillColor=none;" parent="1" vertex="1">
          <mxGeometry x="179" y="298" width="30" height="30" as="geometry" />
        </mxCell>
        <mxCell id="FYXEFxaOS_NWAqLluULk-8" value="N" style="text;html=1;align=center;verticalAlign=middle;resizable=0;points=[];autosize=1;strokeColor=none;fillColor=none;" parent="1" vertex="1">
          <mxGeometry x="179" y="365" width="30" height="30" as="geometry" />
        </mxCell>
        <mxCell id="MmAxCSFne3ARQcM2OWfb-1" value="1" style="text;html=1;align=center;verticalAlign=middle;resizable=0;points=[];autosize=1;strokeColor=none;fillColor=none;" parent="1" vertex="1">
          <mxGeometry x="159" y="751" width="30" height="30" as="geometry" />
        </mxCell>
        <mxCell id="MmAxCSFne3ARQcM2OWfb-2" value="N" style="text;html=1;align=center;verticalAlign=middle;resizable=0;points=[];autosize=1;strokeColor=none;fillColor=none;" parent="1" vertex="1">
          <mxGeometry x="158" y="679" width="30" height="30" as="geometry" />
        </mxCell>
        <mxCell id="MmAxCSFne3ARQcM2OWfb-4" value="N" style="text;html=1;align=center;verticalAlign=middle;resizable=0;points=[];autosize=1;strokeColor=none;fillColor=none;" parent="1" vertex="1">
          <mxGeometry x="352" y="909" width="30" height="30" as="geometry" />
        </mxCell>
        <mxCell id="MmAxCSFne3ARQcM2OWfb-5" value="M" style="text;html=1;align=center;verticalAlign=middle;resizable=0;points=[];autosize=1;strokeColor=none;fillColor=none;" parent="1" vertex="1">
          <mxGeometry x="355" y="840" width="30" height="30" as="geometry" />
        </mxCell>
        <mxCell id="MmAxCSFne3ARQcM2OWfb-8" value="1" style="text;html=1;align=center;verticalAlign=middle;resizable=0;points=[];autosize=1;strokeColor=none;fillColor=none;" parent="1" vertex="1">
          <mxGeometry x="604" y="915" width="30" height="30" as="geometry" />
        </mxCell>
        <mxCell id="MmAxCSFne3ARQcM2OWfb-9" value="M" style="text;html=1;align=center;verticalAlign=middle;resizable=0;points=[];autosize=1;strokeColor=none;fillColor=none;" parent="1" vertex="1">
          <mxGeometry x="605" y="837" width="30" height="30" as="geometry" />
        </mxCell>
        <mxCell id="MmAxCSFne3ARQcM2OWfb-10" value="M" style="text;html=1;align=center;verticalAlign=middle;resizable=0;points=[];autosize=1;strokeColor=none;fillColor=none;" parent="1" vertex="1">
          <mxGeometry x="411" y="600" width="30" height="30" as="geometry" />
        </mxCell>
        <mxCell id="MmAxCSFne3ARQcM2OWfb-11" value="N" style="text;html=1;align=center;verticalAlign=middle;resizable=0;points=[];autosize=1;strokeColor=none;fillColor=none;" parent="1" vertex="1">
          <mxGeometry x="297" y="598" width="30" height="30" as="geometry" />
        </mxCell>
        <mxCell id="MmAxCSFne3ARQcM2OWfb-12" value="1" style="text;html=1;align=center;verticalAlign=middle;resizable=0;points=[];autosize=1;strokeColor=none;fillColor=none;" parent="1" vertex="1">
          <mxGeometry x="100" y="40" width="30" height="30" as="geometry" />
        </mxCell>
        <mxCell id="MmAxCSFne3ARQcM2OWfb-13" value="N" style="text;html=1;align=center;verticalAlign=middle;resizable=0;points=[];autosize=1;strokeColor=none;fillColor=none;" parent="1" vertex="1">
          <mxGeometry x="232" y="40" width="30" height="30" as="geometry" />
        </mxCell>
        <mxCell id="MmAxCSFne3ARQcM2OWfb-14" value="Parent&lt;br&gt;Category" style="text;html=1;align=center;verticalAlign=middle;resizable=0;points=[];autosize=1;strokeColor=none;fillColor=none;" parent="1" vertex="1">
          <mxGeometry x="68" y="50" width="70" height="40" as="geometry" />
        </mxCell>
        <mxCell id="MmAxCSFne3ARQcM2OWfb-15" value="Subcategory" style="text;html=1;align=center;verticalAlign=middle;resizable=0;points=[];autosize=1;strokeColor=none;fillColor=none;" parent="1" vertex="1">
          <mxGeometry x="226" y="50" width="90" height="30" as="geometry" />
        </mxCell>
        <mxCell id="QB9u-moqE6SYAiKvPIDH-2" value="N" style="text;html=1;align=center;verticalAlign=middle;resizable=0;points=[];autosize=1;strokeColor=none;fillColor=none;" parent="1" vertex="1">
          <mxGeometry x="401" y="510" width="30" height="30" as="geometry" />
        </mxCell>
        <mxCell id="QB9u-moqE6SYAiKvPIDH-5" style="edgeStyle=orthogonalEdgeStyle;rounded=0;orthogonalLoop=1;jettySize=auto;html=1;exitX=0.5;exitY=1;exitDx=0;exitDy=0;" parent="1" source="IOHml6rNT0M3Bnd0TqCk-2" target="IOHml6rNT0M3Bnd0TqCk-2" edge="1">
          <mxGeometry relative="1" as="geometry" />
        </mxCell>
        <mxCell id="QB9u-moqE6SYAiKvPIDH-6" value="M" style="text;html=1;align=center;verticalAlign=middle;resizable=0;points=[];autosize=1;strokeColor=none;fillColor=none;" parent="1" vertex="1">
          <mxGeometry x="515" y="513" width="30" height="30" as="geometry" />
        </mxCell>
        <mxCell id="QB9u-moqE6SYAiKvPIDH-7" value="M" style="text;html=1;align=center;verticalAlign=middle;resizable=0;points=[];autosize=1;strokeColor=none;fillColor=none;" parent="1" vertex="1">
          <mxGeometry x="559" y="460" width="30" height="30" as="geometry" />
        </mxCell>
        <mxCell id="QB9u-moqE6SYAiKvPIDH-8" value="N" style="text;html=1;align=center;verticalAlign=middle;resizable=0;points=[];autosize=1;strokeColor=none;fillColor=none;" parent="1" vertex="1">
          <mxGeometry x="559" y="390" width="30" height="30" as="geometry" />
        </mxCell>
        <mxCell id="QB9u-moqE6SYAiKvPIDH-9" value="1" style="text;html=1;align=center;verticalAlign=middle;resizable=0;points=[];autosize=1;strokeColor=none;fillColor=none;" parent="1" vertex="1">
          <mxGeometry x="797" y="870" width="30" height="30" as="geometry" />
        </mxCell>
        <mxCell id="QB9u-moqE6SYAiKvPIDH-10" value="N" style="text;html=1;align=center;verticalAlign=middle;resizable=0;points=[];autosize=1;strokeColor=none;fillColor=none;" parent="1" vertex="1">
          <mxGeometry x="799" y="798" width="30" height="30" as="geometry" />
        </mxCell>
        <mxCell id="QB9u-moqE6SYAiKvPIDH-11" value="1" style="text;html=1;align=center;verticalAlign=middle;resizable=0;points=[];autosize=1;strokeColor=none;fillColor=none;" parent="1" vertex="1">
          <mxGeometry x="585" y="298" width="30" height="30" as="geometry" />
        </mxCell>
        <mxCell id="QB9u-moqE6SYAiKvPIDH-12" value="N" style="text;html=1;align=center;verticalAlign=middle;resizable=0;points=[];autosize=1;strokeColor=none;fillColor=none;" parent="1" vertex="1">
          <mxGeometry x="583" y="228" width="30" height="30" as="geometry" />
        </mxCell>
        <mxCell id="QB9u-moqE6SYAiKvPIDH-14" value="N" style="text;html=1;align=center;verticalAlign=middle;resizable=0;points=[];autosize=1;strokeColor=none;fillColor=none;fontFamily=Helvetica;fontSize=11;fontColor=default;labelBackgroundColor=default;" parent="1" vertex="1">
          <mxGeometry x="666" y="245" width="30" height="30" as="geometry" />
        </mxCell>
        <mxCell id="QB9u-moqE6SYAiKvPIDH-15" value="&lt;div&gt;1&lt;/div&gt;" style="text;html=1;align=center;verticalAlign=middle;resizable=0;points=[];autosize=1;strokeColor=none;fillColor=none;fontFamily=Helvetica;fontSize=11;fontColor=default;labelBackgroundColor=default;" parent="1" vertex="1">
          <mxGeometry x="726" y="285" width="30" height="30" as="geometry" />
        </mxCell>
        <mxCell id="QB9u-moqE6SYAiKvPIDH-16" value="Supervisee" style="text;html=1;align=center;verticalAlign=middle;resizable=0;points=[];autosize=1;strokeColor=none;fillColor=none;fontFamily=Helvetica;fontSize=11;fontColor=default;labelBackgroundColor=default;" parent="1" vertex="1">
          <mxGeometry x="633" y="230" width="80" height="30" as="geometry" />
        </mxCell>
        <mxCell id="QB9u-moqE6SYAiKvPIDH-18" value="Supervisor" style="text;html=1;align=center;verticalAlign=middle;resizable=0;points=[];autosize=1;strokeColor=none;fillColor=none;fontFamily=Helvetica;fontSize=11;fontColor=default;labelBackgroundColor=default;" parent="1" vertex="1">
          <mxGeometry x="717" y="295" width="80" height="30" as="geometry" />
        </mxCell>
        <mxCell id="QB9u-moqE6SYAiKvPIDH-20" value="1" style="text;html=1;align=center;verticalAlign=middle;resizable=0;points=[];autosize=1;strokeColor=none;fillColor=none;fontFamily=Helvetica;fontSize=11;fontColor=default;labelBackgroundColor=default;" parent="1" vertex="1">
          <mxGeometry x="756" y="348" width="30" height="30" as="geometry" />
        </mxCell>
        <mxCell id="QB9u-moqE6SYAiKvPIDH-21" value="1" style="text;html=1;align=center;verticalAlign=middle;resizable=0;points=[];autosize=1;strokeColor=none;fillColor=none;fontFamily=Helvetica;fontSize=11;fontColor=default;labelBackgroundColor=default;" parent="1" vertex="1">
          <mxGeometry x="644" y="353" width="30" height="30" as="geometry" />
        </mxCell>
        <mxCell id="QB9u-moqE6SYAiKvPIDH-22" value="1" style="text;html=1;align=center;verticalAlign=middle;resizable=0;points=[];autosize=1;strokeColor=none;fillColor=none;fontFamily=Helvetica;fontSize=11;fontColor=default;labelBackgroundColor=default;" parent="1" vertex="1">
          <mxGeometry x="795" y="363" width="30" height="30" as="geometry" />
        </mxCell>
        <mxCell id="QB9u-moqE6SYAiKvPIDH-23" value="N" style="text;html=1;align=center;verticalAlign=middle;resizable=0;points=[];autosize=1;strokeColor=none;fillColor=none;fontFamily=Helvetica;fontSize=11;fontColor=default;labelBackgroundColor=default;" parent="1" vertex="1">
          <mxGeometry x="797" y="438" width="30" height="30" as="geometry" />
        </mxCell>
        <mxCell id="QB9u-moqE6SYAiKvPIDH-24" value="N" style="text;html=1;align=center;verticalAlign=middle;resizable=0;points=[];autosize=1;strokeColor=none;fillColor=none;fontFamily=Helvetica;fontSize=11;fontColor=default;labelBackgroundColor=default;" parent="1" vertex="1">
          <mxGeometry x="1280" y="130" width="30" height="30" as="geometry" />
        </mxCell>
        <mxCell id="QB9u-moqE6SYAiKvPIDH-25" value="1" style="text;html=1;align=center;verticalAlign=middle;resizable=0;points=[];autosize=1;strokeColor=none;fillColor=none;fontFamily=Helvetica;fontSize=11;fontColor=default;labelBackgroundColor=default;" parent="1" vertex="1">
          <mxGeometry x="1346" y="86" width="30" height="30" as="geometry" />
        </mxCell>
        <mxCell id="QB9u-moqE6SYAiKvPIDH-26" value="1" style="text;html=1;align=center;verticalAlign=middle;resizable=0;points=[];autosize=1;strokeColor=none;fillColor=none;fontFamily=Helvetica;fontSize=11;fontColor=default;labelBackgroundColor=default;" parent="1" vertex="1">
          <mxGeometry x="1582" y="109" width="30" height="30" as="geometry" />
        </mxCell>
        <mxCell id="QB9u-moqE6SYAiKvPIDH-27" value="1" style="text;html=1;align=center;verticalAlign=middle;resizable=0;points=[];autosize=1;strokeColor=none;fillColor=none;fontFamily=Helvetica;fontSize=11;fontColor=default;labelBackgroundColor=default;" parent="1" vertex="1">
          <mxGeometry x="1582" y="180" width="30" height="30" as="geometry" />
        </mxCell>
        <mxCell id="QB9u-moqE6SYAiKvPIDH-28" value="1" style="text;html=1;align=center;verticalAlign=middle;resizable=0;points=[];autosize=1;strokeColor=none;fillColor=none;fontFamily=Helvetica;fontSize=11;fontColor=default;labelBackgroundColor=default;" parent="1" vertex="1">
          <mxGeometry x="1143" y="238" width="30" height="30" as="geometry" />
        </mxCell>
        <mxCell id="QB9u-moqE6SYAiKvPIDH-29" value="N" style="text;html=1;align=center;verticalAlign=middle;resizable=0;points=[];autosize=1;strokeColor=none;fillColor=none;fontFamily=Helvetica;fontSize=11;fontColor=default;labelBackgroundColor=default;" parent="1" vertex="1">
          <mxGeometry x="1266" y="238" width="30" height="30" as="geometry" />
        </mxCell>
        <mxCell id="EUNirhwzU0a3P5IMfqMN-7" value="1" style="text;html=1;align=center;verticalAlign=middle;resizable=0;points=[];autosize=1;strokeColor=none;fillColor=none;fontFamily=Helvetica;fontSize=11;fontColor=default;labelBackgroundColor=default;" parent="1" vertex="1">
          <mxGeometry x="1366" y="513" width="30" height="30" as="geometry" />
        </mxCell>
        <mxCell id="EUNirhwzU0a3P5IMfqMN-8" value="N" style="text;html=1;align=center;verticalAlign=middle;resizable=0;points=[];autosize=1;strokeColor=none;fillColor=none;fontFamily=Helvetica;fontSize=11;fontColor=default;labelBackgroundColor=default;" parent="1" vertex="1">
          <mxGeometry x="1365" y="586" width="30" height="30" as="geometry" />
        </mxCell>
        <mxCell id="EUNirhwzU0a3P5IMfqMN-9" value="1" style="text;html=1;align=center;verticalAlign=middle;resizable=0;points=[];autosize=1;strokeColor=none;fillColor=none;fontFamily=Helvetica;fontSize=11;fontColor=default;labelBackgroundColor=default;" parent="1" vertex="1">
          <mxGeometry x="1192" y="1019" width="30" height="30" as="geometry" />
        </mxCell>
        <mxCell id="EUNirhwzU0a3P5IMfqMN-10" value="N" style="text;html=1;align=center;verticalAlign=middle;resizable=0;points=[];autosize=1;strokeColor=none;fillColor=none;fontFamily=Helvetica;fontSize=11;fontColor=default;labelBackgroundColor=default;" parent="1" vertex="1">
          <mxGeometry x="1266" y="1042" width="30" height="30" as="geometry" />
        </mxCell>
        <mxCell id="EUNirhwzU0a3P5IMfqMN-13" value="1" style="text;html=1;align=center;verticalAlign=middle;resizable=0;points=[];autosize=1;strokeColor=none;fillColor=none;fontFamily=Helvetica;fontSize=11;fontColor=default;labelBackgroundColor=default;" parent="1" vertex="1">
          <mxGeometry x="920" y="331" width="30" height="30" as="geometry" />
        </mxCell>
        <mxCell id="EUNirhwzU0a3P5IMfqMN-14" value="1" style="text;html=1;align=center;verticalAlign=middle;resizable=0;points=[];autosize=1;strokeColor=none;fillColor=none;fontFamily=Helvetica;fontSize=11;fontColor=default;labelBackgroundColor=default;" parent="1" vertex="1">
          <mxGeometry x="970" y="408" width="30" height="30" as="geometry" />
        </mxCell>
        <mxCell id="EUNirhwzU0a3P5IMfqMN-15" value="N" style="text;html=1;align=center;verticalAlign=middle;resizable=0;points=[];autosize=1;strokeColor=none;fillColor=none;fontFamily=Helvetica;fontSize=11;fontColor=default;labelBackgroundColor=default;" parent="1" vertex="1">
          <mxGeometry x="924" y="535" width="30" height="30" as="geometry" />
        </mxCell>
        <mxCell id="EUNirhwzU0a3P5IMfqMN-16" value="1" style="text;html=1;align=center;verticalAlign=middle;resizable=0;points=[];autosize=1;strokeColor=none;fillColor=none;fontFamily=Helvetica;fontSize=11;fontColor=default;labelBackgroundColor=default;" parent="1" vertex="1">
          <mxGeometry x="986" y="488" width="30" height="30" as="geometry" />
        </mxCell>
        <mxCell id="EUNirhwzU0a3P5IMfqMN-18" value="1" style="text;html=1;align=center;verticalAlign=middle;resizable=0;points=[];autosize=1;strokeColor=none;fillColor=none;fontFamily=Helvetica;fontSize=11;fontColor=default;labelBackgroundColor=default;" parent="1" vertex="1">
          <mxGeometry x="993" y="678" width="30" height="30" as="geometry" />
        </mxCell>
        <mxCell id="EUNirhwzU0a3P5IMfqMN-19" value="1" style="text;html=1;align=center;verticalAlign=middle;resizable=0;points=[];autosize=1;strokeColor=none;fillColor=none;fontFamily=Helvetica;fontSize=11;fontColor=default;labelBackgroundColor=default;" parent="1" vertex="1">
          <mxGeometry x="993" y="754" width="30" height="30" as="geometry" />
        </mxCell>
        <mxCell id="QaToeLKL0FiOze8_qUDI-3" style="edgeStyle=orthogonalEdgeStyle;shape=connector;rounded=0;orthogonalLoop=1;jettySize=auto;html=1;strokeColor=default;align=center;verticalAlign=middle;fontFamily=Helvetica;fontSize=11;fontColor=default;labelBackgroundColor=default;endArrow=none;endFill=0;" parent="1" source="QaToeLKL0FiOze8_qUDI-2" target="36_IhezK0Ubu6t6SHMQt-4" edge="1">
          <mxGeometry relative="1" as="geometry">
            <mxPoint x="1180.0000273922694" y="670.0270270270269" as="sourcePoint" />
            <mxPoint x="1116" y="645" as="targetPoint" />
            <Array as="points">
              <mxPoint x="1155" y="670" />
              <mxPoint x="1155" y="645" />
            </Array>
          </mxGeometry>
        </mxCell>
        <mxCell id="QaToeLKL0FiOze8_qUDI-2" value="City" style="ellipse;whiteSpace=wrap;html=1;align=center;" parent="1" vertex="1">
          <mxGeometry x="1185" y="650" width="60" height="40" as="geometry" />
        </mxCell>
        <mxCell id="4nFmlGrkYZHXywnM78xl-7" style="edgeStyle=orthogonalEdgeStyle;rounded=0;orthogonalLoop=1;jettySize=auto;html=1;endArrow=none;endFill=0;jumpStyle=arc;" edge="1" parent="1" source="4nFmlGrkYZHXywnM78xl-1" target="4nFmlGrkYZHXywnM78xl-6">
          <mxGeometry relative="1" as="geometry">
            <Array as="points">
              <mxPoint x="610" y="728" />
            </Array>
          </mxGeometry>
        </mxCell>
        <mxCell id="4nFmlGrkYZHXywnM78xl-1" value="&lt;span style=&quot;font-size: 11px; background-color: rgb(255, 255, 255);&quot;&gt;WISHLIST&lt;/span&gt;" style="whiteSpace=wrap;html=1;align=center;" vertex="1" parent="1">
          <mxGeometry x="560" y="751" width="100" height="40" as="geometry" />
        </mxCell>
        <mxCell id="4nFmlGrkYZHXywnM78xl-3" value="HAS_WISHLIST" style="shape=rhombus;perimeter=rhombusPerimeter;whiteSpace=wrap;html=1;align=center;" vertex="1" parent="1">
          <mxGeometry x="550" y="860" width="120" height="60" as="geometry" />
        </mxCell>
        <mxCell id="4nFmlGrkYZHXywnM78xl-4" value="SUPPORT_TICKET" style="whiteSpace=wrap;html=1;align=center;" vertex="1" parent="1">
          <mxGeometry x="1408.5" y="1050" width="121" height="40" as="geometry" />
        </mxCell>
        <mxCell id="4nFmlGrkYZHXywnM78xl-5" value="REQUEST" style="shape=rhombus;perimeter=rhombusPerimeter;whiteSpace=wrap;html=1;align=center;" vertex="1" parent="1">
          <mxGeometry x="1155" y="1040" width="120" height="60" as="geometry" />
        </mxCell>
        <mxCell id="4nFmlGrkYZHXywnM78xl-6" value="WISHLIST_ID" style="ellipse;whiteSpace=wrap;html=1;align=center;fontStyle=4;" vertex="1" parent="1">
          <mxGeometry x="504" y="708" width="94" height="40" as="geometry" />
        </mxCell>
      </root>
    </mxGraphModel>
  </diagram>
</mxfile>
